<?xml version="1.0" encoding="utf-8"?>
<svg width="30px" height="30px" viewBox="0 0 30 30" version="1.1" xmlns:xlink="http://www.w3.org/1999/xlink" xmlns="http://www.w3.org/2000/svg">
  <defs>
    <filter id="filter_1">
      <feColorMatrix in="SourceGraphic" type="matrix" values="0 0 0 0 1 0 0 0 0 1 0 0 0 0 1 0 0 0 1 0" />
    </filter>
  </defs>
  <g id="Group-6-Copy">
    <g id="Arrow-Copy-4" transform="matrix(0.70710677 -0.70710677 0.70710677 0.70710677 5 14.142136)" filter="url(#filter_1)">
      <g id="Group">
        <path d="M12.1023 1.32258C11.8054 1.02002 11.8054 0.529477 12.1023 0.226919C12.3722 -0.0481343 12.7946 -0.0731391 13.0923 0.151904L13.1775 0.226919L19.7773 6.95217C19.8506 7.02684 19.9058 7.11296 19.9429 7.20488C19.9759 7.28669 19.9946 7.3731 19.999 7.46012L19.9991 7.46283C19.9997 7.47522 20 7.48761 20 7.5C20 7.51484 19.9996 7.52958 19.9988 7.54421C19.9939 7.63315 19.9742 7.71808 19.9423 7.79651L19.9421 7.79711C19.9182 7.85569 19.8875 7.91064 19.8509 7.96092L19.8505 7.9615L19.7773 8.04783L13.1775 14.7731C12.8806 15.0756 12.3992 15.0756 12.1023 14.7731C11.8324 14.498 11.8078 14.0676 12.0287 13.7643L12.1023 13.6774L17.4042 8.27475L0.760296 8.27475C0.340396 8.27475 0 7.92788 0 7.5C0 7.10777 0.286027 6.78363 0.657128 6.73232L0.760296 6.72525L17.4042 6.72525L12.1023 1.32258Z" id="Combined-Shape" fill="#111111" fill-rule="evenodd" stroke="none" />
      </g>
    </g>
    <path d="M0 0L25 0L25 25L0 25L0 0Z" transform="translate(0 5)" id="Path" fill="none" fill-rule="evenodd" stroke="none" />
  </g>
</svg>