<?xml version="1.0" encoding="utf-8"?>
<svg width="25px" height="27px" viewBox="0 0 25 27" version="1.1" xmlns:xlink="http://www.w3.org/1999/xlink" xmlns="http://www.w3.org/2000/svg">
  <g id="Group-2" transform="translate(1 1)">
    <path d="M0 0.00162941L0 0.596363C0 2.65756 1.62734 4.32934 3.63534 4.32934L3.63534 4.32934C5.64333 4.32934 7.27067 2.65756 7.27067 0.594734L7.27067 0" transform="translate(7.8638716 20.670664)" id="Path" fill="none" fill-rule="evenodd" stroke="#FFFFFF" stroke-width="2" stroke-linecap="round" stroke-linejoin="round" />
    <path d="M2.87559 7.38285C2.87559 3.30444 7.53158 0 11.5 0C15.4692 0 20.1244 3.30607 20.1244 7.38285L20.1244 11.9403C20.1244 12.8039 20.4591 13.6333 21.0539 14.2443L22.0705 15.2887C22.6653 15.8998 23 16.7291 23 17.5927C23 19.2938 21.6582 20.6723 20.0023 20.6723L2.99772 20.6723C1.34184 20.6723 0 19.2938 0 17.5927C0 16.7291 0.334667 15.8998 0.929453 15.2887L1.94614 14.2443C2.54093 13.6333 2.87559 12.8039 2.87559 11.9403L2.87559 7.38285Z" id="Path" fill="none" fill-rule="evenodd" stroke="#FFFFFF" stroke-width="2" stroke-linecap="round" stroke-linejoin="round" />
  </g>
</svg>