<?xml version="1.0" encoding="utf-8"?>
<svg width="31px" height="30px" viewBox="0 0 31 30" version="1.1" xmlns:xlink="http://www.w3.org/1999/xlink" xmlns="http://www.w3.org/2000/svg">
  <g id="Group-7">
    <path d="M10 1.8173C10.7662 0.9605 12.0907 0 14.1067 0C17.6338 0 20 3.1654 20 6.1149C20 12.2774 11.9751 17 10 17C8.02489 17 0 12.2774 0 6.1149C0 3.1654 2.36622 1.5099e-15 5.89333 1.5099e-15C7.90933 -1.5099e-15 9.23378 0.9622 10 1.8173Z" transform="matrix(0.83867055 0.54463905 -0.54463905 0.83867055 13.701172 3.980667)" id="Path-Copy-3" fill="#FFFFFF" fill-rule="evenodd" stroke="none" />
    <path d="M10.7841 0.227768C9.04903 0.758248 8.1569 1.91722 7.71846 2.84181C6.8384 2.3219 5.45026 1.8585 3.71514 2.38898C0.679449 3.31708 -0.540503 6.61068 0.220394 9.09946C1.108 12.0027 4.03282 13.8689 6.73918 14.8607C6.53421 12.2676 7.00395 9.85963 8.29992 7.864C10.2817 4.81231 14.2239 3.3869 17.6171 4.61026C17.5727 4.35077 17.5121 4.09269 17.4339 3.83677C16.673 1.34799 13.8198 -0.700336 10.7841 0.227768Z" id="Combined-Shape" fill="#FFFFFF" fill-rule="evenodd" stroke="none" />
  </g>
</svg>