<?xml version="1.0" encoding="utf-8"?>
<svg width="30px" height="30px" viewBox="0 0 30 30" version="1.1" xmlns:xlink="http://www.w3.org/1999/xlink" xmlns="http://www.w3.org/2000/svg">
  <g id="Group-4">
    <g id="Chat,-Messages,-Bubble,-Circle.6">
      <g id="Group" transform="matrix(-1 0 0 1 27.25 2.75)">
        <path d="M3.5 0L21 0C22.9335 0 24.5 1.56647 24.5 3.5L24.5 16C24.5 17.9335 22.9335 19.5 21 19.5L13.723 19.5L8.74605 23.9283C7.2951 25.2195 5 24.1895 5 22.2475L5 19.5L3.5 19.5C1.63092 19.5 0.104839 18.0362 0.00517713 16.1921L0 16L0 3.5C0 1.56647 1.56647 0 3.5 0ZM18.5 5.62C19.0523 5.62 19.5 6.06772 19.5 6.62C19.5 7.13284 19.114 7.55551 18.6166 7.61327L18.5 7.62L6 7.62C5.44772 7.62 5 7.17228 5 6.62C5 6.10716 5.38604 5.68449 5.88338 5.62673L6 5.62L18.5 5.62ZM14.75 11.245C15.3023 11.245 15.75 11.6927 15.75 12.245C15.75 12.7578 15.364 13.1805 14.8666 13.2383L14.75 13.245L6 13.245C5.44772 13.245 5 12.7973 5 12.245C5 11.7322 5.38604 11.3095 5.88338 11.2517L6 11.245L14.75 11.245Z" id="Combined-Shape" fill="#FFFFFF" fill-rule="evenodd" stroke="none" />
      </g>
      <path d="M0 2.84061e-16L30 2.84061e-16L30 30L0 30L0 2.84061e-16Z" id="Path" fill="none" fill-rule="evenodd" stroke="none" />
    </g>
  </g>
</svg>