<?xml version="1.0" encoding="utf-8"?>
<svg width="34px" height="32px" viewBox="0 0 34 32" version="1.1" xmlns:xlink="http://www.w3.org/1999/xlink" xmlns="http://www.w3.org/2000/svg">
  <g id="Mute" transform="translate(1 1)">
    <path d="M0 0L32 0L32 30L0 30L0 0Z" id="Path" fill="none" fill-rule="evenodd" stroke="none" />
    <path d="M1.39876e-15 5.68561L6.2664 0.376727C7.29007 -0.491026 8.85863 0.236563 8.85863 1.57835L8.85863 20.4216C8.85863 21.7634 7.28849 22.491 6.2664 21.6233L0 16.3144" transform="translate(8.478273 3.999375)" id="Path" fill="none" fill-rule="evenodd" stroke="#FFFFFF" stroke-width="2" stroke-linecap="round" stroke-linejoin="round" />
    <path d="M5.31518 10.6304L1.57487 10.6304C0.705541 10.6304 0 9.92482 0 9.05549L0 1.57487C0 0.705541 0.705541 0 1.57487 0L5.31518 0" transform="translate(3.163093 9.684982)" id="Path" fill="none" fill-rule="evenodd" stroke="#FFFFFF" stroke-width="2" stroke-linecap="round" stroke-linejoin="round" />
    <path d="M5.625 0L0 5.625" transform="translate(24.6 12.1125)" id="Path" fill="none" fill-rule="evenodd" stroke="#FFFFFF" stroke-width="2" stroke-linecap="round" stroke-linejoin="round" />
    <path d="M5.625 5.625L0 0" transform="translate(24.6 12.1125)" id="Path" fill="none" fill-rule="evenodd" stroke="#FFFFFF" stroke-width="2" stroke-linecap="round" stroke-linejoin="round" />
  </g>
</svg>