<?xml version="1.0" encoding="utf-8"?>
<svg width="1440px" height="112px" viewBox="0 0 1440 112" version="1.1" xmlns:xlink="http://www.w3.org/1999/xlink" xmlns="http://www.w3.org/2000/svg">
  <defs>
    <filter id="filter_1">
      <feColorMatrix in="SourceGraphic" type="matrix" values="0 0 0 0 0.06666667 0 0 0 0 0.06666667 0 0 0 0 0.06666667 0 0 0 1 0" />
    </filter>
    <filter id="filter_2">
      <feColorMatrix in="SourceGraphic" type="matrix" values="0 0 0 0 0 0 0 0 0 0 0 0 0 0 0 0 0 0 1 0" />
    </filter>
    <filter id="filter_3">
      <feColorMatrix in="SourceGraphic" type="matrix" values="0 0 0 0 0.33333334 0 0 0 0 0.33333334 0 0 0 0 0.33333334 0 0 0 1 0" />
    </filter>
  </defs>
  <g id="Header">
    <path d="M0 0L1440 0L1440 42L0 42L0 0Z" id="Rectangle" fill="#EBEBEB" fill-rule="evenodd" stroke="none" />
    <path d="M0 0L1440 0L1440 70L0 70L0 0Z" transform="translate(0 42)" id="Rectangle" fill="#FFFFFF" fill-rule="evenodd" stroke="none" />
    <g id="Group-3" transform="translate(70 62)">
      <g id="Logo">
        <path d="M21.3 23.4L21.3 13.77L23.55 13.77L23.55 9.27L21.3 9.27L21.3 0.6L15.66 0.6L15.66 23.4L21.3 23.4ZM0.6 22.5C3.06 22.5 5.235 21.8 7.125 20.4C9.015 19 10.485 17.005 11.535 14.415C12.585 11.825 13.11 8.8 13.11 5.34L13.11 0.84L0.3 0.84L0.3 5.34L7.47 5.34C7.47 8.44 7.07 10.935 6.27 12.825C5.47 14.715 4.5 16.05 3.36 16.83C2.22 17.61 1.1 18 0 18L0.6 22.5ZM38.16 22.5L39.36 17.85C38.48 17.75 37.7 17.27 37.02 16.41C36.34 15.55 35.795 14.32 35.385 12.72C34.975 11.12 34.75 9.2 34.71 6.96L34.71 6.96L38.76 6.96L38.76 2.4L34.86 2.4L34.86 0L29.25 0L29.25 2.4L25.35 2.4L25.35 6.96L29.4 6.96C29.36 10.48 28.965 13.14 28.215 14.94C27.465 16.74 26.31 17.71 24.75 17.85L24.75 17.85L25.95 22.5C27.03 22.42 28.11 22.03 29.19 21.33C30.27 20.63 31.23 19.6 32.07 18.24C32.89 19.6 33.84 20.63 34.92 21.33C36 22.03 37.08 22.42 38.16 22.5L38.16 22.5ZM46.35 23.4L46.35 0.6L40.71 0.6L40.71 23.4L46.35 23.4Z" transform="translate(1.5 0.6)" id="가치" fill="#015AA8" stroke="none" />
        <path d="M0 0L130 0L130 30L0 30L0 0Z" id="Rectangle" fill="none" fill-rule="evenodd" stroke="none" />
        <path d="M13.11 12.3L14.31 7.8C13.09 7.8 12.06 7.355 11.22 6.465C10.38 5.575 9.96 4.25 9.96 2.49L9.96 2.49L9.96 0L4.35 0L4.35 2.49C4.35 4.25 3.93 5.575 3.09 6.465C2.25 7.355 1.22 7.8 0 7.8L0 7.8L1.2 12.3C2.32 12.3 3.395 12.085 4.425 11.655C5.455 11.225 6.37 10.61 7.17 9.81C7.95 10.61 8.855 11.225 9.885 11.655C10.915 12.085 11.99 12.3 13.11 12.3L13.11 12.3ZM21.6 12.3L21.6 8.25L23.85 8.25L23.85 4.05L21.6 4.05L21.6 0L15.96 0L15.96 12.3L21.6 12.3ZM21.6 22.8L21.6 13.35L15.99 13.35L15.99 14.46L6.84 14.46L6.84 13.35L1.2 13.35L1.2 22.8L21.6 22.8ZM15.99 19.2L6.84 19.2L6.84 18.06L15.99 18.06L15.99 19.2ZM46.65 22.8L46.65 0L41.01 0L41.01 22.8L46.65 22.8ZM38.46 21.9L39.66 17.1C38.78 17 37.985 16.46 37.275 15.48C36.565 14.5 36.01 13.16 35.61 11.46C35.21 9.76 35.01 7.83 35.01 5.67L35.01 5.67L35.01 0.3L29.7 0.3L29.7 5.67C29.7 9.11 29.32 11.84 28.56 13.86C27.8 15.88 26.63 16.96 25.05 17.1L25.05 17.1L26.25 21.9C27.33 21.82 28.41 21.425 29.49 20.715C30.57 20.005 31.53 18.97 32.37 17.61C33.19 18.97 34.14 20.005 35.22 20.715C36.3 21.425 37.38 21.82 38.46 21.9L38.46 21.9ZM71.25 22.8L71.25 13.17L73.5 13.17L73.5 8.67L71.25 8.67L71.25 0L65.61 0L65.61 22.8L71.25 22.8ZM63.6 21.9L63.6 17.4L55.89 17.4L55.89 4.8L63 4.8L63 0.3L50.25 0.3L50.25 21.9L63.6 21.9Z" transform="translate(52.2 5.2)" id="삽시다" fill="#FF7300" stroke="none" />
      </g>
      <g id="소상공인홍보관" transform="translate(790 5)" filter="url(#filter_1)">
        <g id="소상공인홍보관">
          <path d="M74.6279 3.4458L74.6279 4.57959L87.3721 4.57959L87.3721 3.4458L81.6504 3.4458L81.6504 1.89014L80.3496 1.89014L80.3496 3.4458L74.6279 3.4458ZM32.4141 7.92822L32.4141 11.8657L31.1045 11.8657L31.1045 2.09229L32.4141 2.09229L32.4141 6.73291L34.9717 6.73291L34.9717 7.92822L32.4141 7.92822ZM67.9131 14.4761L67.9131 2.09229L69.2314 2.09229L69.2314 14.4761L67.9131 14.4761ZM122.599 14.731L122.599 9.54541L125.139 9.54541L125.139 8.35889L122.599 8.35889L122.599 2.09229L121.28 2.09229L121.28 14.731L122.599 14.731ZM50.3438 8.28857Q50.5635 6.34619 50.5635 2.61084L39.8672 2.61084L39.8672 3.78857L49.2451 3.78857Q49.2451 6.3374 49.0869 8.19189L50.3438 8.28857ZM28.1338 10.9517Q27.0176 10.354 25.8135 9.21143Q24.6094 8.06885 24.1523 7.11084Q23.6865 8.20947 22.5264 9.44434Q21.3662 10.6792 20.1094 11.3823L19.1514 10.4771Q21.0146 9.57178 22.2539 7.91064Q23.4932 6.24951 23.4932 4.44775L23.4932 2.67236L24.75 2.67236L24.75 4.44775Q24.75 6.14404 26.0024 7.69971Q27.2549 9.25537 28.9951 9.99365L28.1338 10.9517ZM60.8555 11.3472Q58.957 11.3472 57.6826 10.1475Q56.4082 8.94775 56.4082 7.04053Q56.4082 5.12451 57.6782 3.93359Q58.9482 2.74268 60.8555 2.74268Q62.7627 2.74268 64.0239 3.9292Q65.2852 5.11572 65.2852 7.04053Q65.2852 8.94775 64.0195 10.1475Q62.7539 11.3472 60.8555 11.3472ZM118.617 9.16748Q118.89 6.69775 118.89 3.24365L110.452 3.24365L110.452 4.4126L117.58 4.4126Q117.58 6.71533 117.343 9.07959L118.617 9.16748ZM8.98242 6.46924Q8.33203 7.85791 6.55225 9.19385Q4.77246 10.5298 2.69824 11.1099L1.80176 10.064Q4.78125 9.38721 6.54785 7.62939Q8.31445 5.87158 8.31445 4.34229L8.31445 3.4458L9.66797 3.4458L9.66797 4.34229Q9.66797 5.84521 11.4434 7.60303Q13.2188 9.36084 16.1982 10.064L15.2666 11.0923Q13.2715 10.4858 11.4521 9.14551Q9.63281 7.80518 8.98242 6.46924ZM99.668 11.6899L99.668 15.3374L106.866 15.3374L106.866 16.5063L91.1338 16.5063L91.1338 15.3374L98.332 15.3374L98.332 11.6899L93.6738 11.6899L93.6738 3.55127L94.9834 3.55127L94.9834 6.48682L103.017 6.48682L103.017 3.55127L104.309 3.55127L104.309 11.6899L99.668 11.6899ZM60.8555 3.91162Q59.4668 3.91162 58.5967 4.76416Q57.7266 5.6167 57.7266 7.04053Q57.7266 8.46436 58.5923 9.32129Q59.458 10.1782 60.8555 10.1782Q62.2529 10.1782 63.123 9.32129Q63.9932 8.46436 63.9932 7.04053Q63.9932 5.6167 63.123 4.76416Q62.2529 3.91162 60.8555 3.91162ZM73.1338 11.4526L73.1338 12.5864L88.8662 12.5864L88.8662 11.4526L81.6504 11.4526L81.6504 10.1519Q84.0146 10.0728 85.2539 9.41357Q86.4932 8.7544 86.4932 7.65576Q86.4932 6.46924 85.0957 5.79248Q83.6982 5.11572 81 5.11572Q78.293 5.11572 76.8911 5.78809Q75.4893 6.46045 75.4893 7.65576Q75.4893 8.75439 76.7241 9.41357Q77.959 10.0728 80.3496 10.1519L80.3496 11.4526L73.1338 11.4526ZM37.1338 9.52783L37.1338 10.6968L52.8662 10.6968L52.8662 9.52783L45.1055 9.52783L45.1055 6.09131L43.8135 6.09131L43.8135 9.52783L37.1338 9.52783ZM77.9546 6.62305Q79.0313 6.23193 81 6.23193Q82.9688 6.23193 84.0454 6.62744Q85.1221 7.02295 85.1221 7.65576Q85.1221 8.28858 84.0762 8.67529Q83.0303 9.06201 81 9.06201Q78.9785 9.06201 77.9282 8.67969Q76.8779 8.29736 76.8779 7.65576Q76.8779 7.01416 77.9546 6.62305ZM115.036 11.8394Q118.854 11.7427 120.041 11.646L119.971 10.5122Q117.791 10.6528 114.513 10.6968L114.513 6.95264L113.203 6.95264L113.203 10.7144Q111.278 10.7671 109.028 10.7671L109.151 11.936Q111.217 11.936 115.036 11.8394ZM103.017 7.67334L94.9834 7.67334L94.9834 10.4946L103.017 10.4946L103.017 7.67334ZM1.13379 16.3833L1.13379 15.2144L8.33203 15.2144L8.33203 11.0923L9.66797 11.0923L9.66797 15.2144L16.8662 15.2144L16.8662 16.3833L1.13379 16.3833ZM40.8823 17.8818Q42.3105 18.7739 44.9648 18.7739Q47.6016 18.7739 49.0298 17.8818Q50.458 16.9897 50.458 15.522Q50.458 14.0454 49.0342 13.1445Q47.6104 12.2437 44.9648 12.2437Q42.3018 12.2437 40.8779 13.1445Q39.4541 14.0454 39.4541 15.522Q39.4541 16.9897 40.8823 17.8818ZM27.1758 18.9058Q24.5303 18.9058 23.0933 17.9873Q21.6563 17.0688 21.6563 15.6099Q21.6563 14.1597 23.0977 13.2456Q24.5391 12.3315 27.1758 12.3315Q29.8213 12.3315 31.2627 13.2412Q32.7041 14.1509 32.7041 15.6099Q32.7041 17.0776 31.2671 17.9917Q29.8301 18.9058 27.1758 18.9058ZM58.5352 18.396L58.5352 12.894L59.8535 12.894L59.8535 17.2095L69.6797 17.2095L69.6797 18.396L58.5352 18.396ZM41.9282 13.9531Q42.9961 13.3599 44.9648 13.3599Q46.9248 13.3599 47.9971 13.9531Q49.0693 14.5464 49.0693 15.522Q49.0693 16.4976 48.0059 17.082Q46.9424 17.6665 44.9648 17.6665Q42.9873 17.6665 41.9238 17.082Q40.8604 16.4976 40.8604 15.522Q40.8604 14.5464 41.9282 13.9531ZM27.1758 13.4478Q25.207 13.4478 24.1304 14.0454Q23.0537 14.6431 23.0537 15.6099Q23.0537 16.5942 24.1348 17.1919Q25.2158 17.7896 27.1758 17.7896Q29.1621 17.7896 30.2432 17.1875Q31.3242 16.5854 31.3242 15.6099Q31.3242 14.6519 30.2432 14.0498Q29.1621 13.4478 27.1758 13.4478ZM76.7725 18.3872Q78.1963 19.1167 81 19.1167Q83.8037 19.1167 85.2275 18.3872Q86.6514 17.6577 86.6514 16.3306Q86.6514 14.9771 85.2056 14.2476Q83.7598 13.5181 81 13.5181Q78.2402 13.5181 76.7944 14.2476Q75.3486 14.9771 75.3486 16.3306Q75.3486 17.6577 76.7725 18.3872ZM112.017 13.5796L112.017 18.4751L123.047 18.4751L123.047 17.3062L113.326 17.3062L113.326 13.5796L112.017 13.5796ZM76.7373 16.3306Q76.7373 14.6343 81 14.6343Q85.2627 14.6343 85.2627 16.3306Q85.2627 18.0005 81 18.0005Q76.7373 18.0005 76.7373 16.3306Z" />
        </g>
      </g>
      <g id="온누리상품관" transform="translate(651 5)" filter="url(#filter_1)">
        <g id="온누리상품관">
          <path d="M49.7373 19.0464L49.7373 2.09229L51.0469 2.09229L51.0469 19.0464L49.7373 19.0464ZM68.4141 11.8657L68.4141 7.92822L70.9717 7.92822L70.9717 6.73291L68.4141 6.73291L68.4141 2.09229L67.1045 2.09229L67.1045 11.8657L68.4141 11.8657ZM104.599 14.731L104.599 9.54541L107.139 9.54541L107.139 8.35889L104.599 8.35889L104.599 2.09229L103.28 2.09229L103.28 14.731L104.599 14.731ZM1.13379 11.0571L1.13379 12.2261L16.8662 12.2261L16.8662 11.0571L9.66797 11.0571L9.66797 9.09717Q11.9531 8.98291 13.166 8.09082Q14.3789 7.19873 14.3789 5.81885Q14.3789 4.28955 12.9639 3.39746Q11.5488 2.50537 9 2.50537Q6.45117 2.50537 5.03613 3.39746Q3.62109 4.28955 3.62109 5.81885Q3.62109 7.19873 4.83398 8.09082Q6.04687 8.98291 8.33203 9.09717L8.33203 11.0571L1.13379 11.0571ZM75.0586 3.69189L75.0586 2.52295L86.9414 2.52295L86.9414 3.69189L75.0586 3.69189ZM61.8135 9.21143Q63.0176 10.354 64.1338 10.9517L64.9951 9.99365Q63.2549 9.25537 62.0024 7.69971Q60.75 6.14404 60.75 4.44775L60.75 2.67236L59.4932 2.67236L59.4932 4.44775Q59.4932 6.24951 58.2539 7.91064Q57.0146 9.57178 55.1514 10.4771L56.1094 11.3823Q57.3662 10.6792 58.5264 9.44434Q59.6865 8.20947 60.1523 7.11084Q60.6094 8.06885 61.8135 9.21143ZM21.7969 2.68994L21.7969 8.46436L32.6514 8.46436L32.6514 7.31299L23.1152 7.31299L23.1152 2.68994L21.7969 2.68994ZM100.617 9.16748Q100.89 6.69775 100.89 3.24365L92.4521 3.24365L92.4521 4.4126L99.5801 4.4126Q99.5801 6.71533 99.3428 9.07959L100.617 9.16748ZM38.4082 15.3901L38.4082 8.6665L44.8594 8.6665L44.8594 4.75537L38.4082 4.75537L38.4082 3.58643L46.1689 3.58643L46.1689 9.80029L39.7266 9.80029L39.7266 14.2212Q46.1162 14.2212 47.8037 13.8608L47.9531 14.9946Q45.8438 15.3901 38.4082 15.3901ZM6.03809 4.20605Q7.09277 3.62158 9 3.62158Q10.9072 3.62158 11.9619 4.20605Q13.0166 4.79053 13.0166 5.81885Q13.0166 6.82959 11.9663 7.41406Q10.916 7.99854 9 7.99854Q7.08398 7.99854 6.03369 7.41406Q4.9834 6.82959 4.9834 5.81885Q4.9834 4.79053 6.03809 4.20605ZM74.8477 8.51709L74.8477 7.3833L77.3789 7.3833L77.2207 4.30713L78.5127 4.30713L78.6973 7.3833L83.3027 7.3833L83.4873 4.30713L84.7793 4.30713L84.6211 7.3833L87.1523 7.3833L87.1523 8.51709L74.8477 8.51709ZM97.0356 11.8394Q100.854 11.7427 102.041 11.646L101.971 10.5122Q99.791 10.6528 96.5127 10.6968L96.5127 6.95264L95.2031 6.95264L95.2031 10.7144Q93.2783 10.7671 91.0283 10.7671L91.1514 11.936Q93.2168 11.936 97.0356 11.8394ZM75.7266 18.5454L75.7266 13.1665L80.332 13.1665L80.332 11.1978L73.1338 11.1978L73.1338 10.0288L88.8662 10.0288L88.8662 11.1978L81.668 11.1978L81.668 13.1665L86.2734 13.1665L86.2734 18.5454L75.7266 18.5454ZM27.6504 19.0464L27.6504 12.3491L34.8662 12.3491L34.8662 11.1802L19.1338 11.1802L19.1338 12.3491L26.332 12.3491L26.332 19.0464L27.6504 19.0464ZM59.0933 17.9873Q60.5303 18.9058 63.1758 18.9058Q65.8301 18.9058 67.2671 17.9917Q68.7041 17.0776 68.7041 15.6099Q68.7041 14.1509 67.2627 13.2412Q65.8213 12.3315 63.1758 12.3315Q60.5391 12.3315 59.0977 13.2456Q57.6563 14.1597 57.6563 15.6099Q57.6563 17.0688 59.0933 17.9873ZM60.1304 14.0454Q61.207 13.4478 63.1758 13.4478Q65.1621 13.4478 66.2432 14.0498Q67.3242 14.6519 67.3242 15.6099Q67.3242 16.5854 66.2432 17.1875Q65.1621 17.7896 63.1758 17.7896Q61.2158 17.7896 60.1348 17.1919Q59.0537 16.5942 59.0537 15.6099Q59.0537 14.6431 60.1304 14.0454ZM94.0166 13.5796L94.0166 18.4751L105.047 18.4751L105.047 17.3062L95.3262 17.3062L95.3262 13.5796L94.0166 13.5796ZM3.70898 13.7202L3.70898 18.4751L14.6338 18.4751L14.6338 17.3062L5.01855 17.3062L5.01855 13.7202L3.70898 13.7202ZM84.9814 14.3354L77.0186 14.3354L77.0186 17.394L84.9814 17.394L84.9814 14.3354Z" />
        </g>
      </g>
      <g id="구독경제관" transform="translate(529 5)" filter="url(#filter_1)">
        <g id="구독경제관">
          <path d="M49.9131 9.90576L49.9131 12.0239L51.2314 12.0239L51.2314 2.09229L49.9131 2.09229L49.9131 5.1333L46.5293 5.1333L46.5293 6.31982L49.9131 6.31982L49.9131 8.71924L46.3535 8.71924L46.3535 9.90576L49.9131 9.90576ZM68.168 19.0464L68.168 2.09229L69.4775 2.09229L69.4775 19.0464L68.168 19.0464ZM86.5986 14.731L86.5986 9.54541L89.1387 9.54541L89.1387 8.35889L86.5986 8.35889L86.5986 2.09229L85.2803 2.09229L85.2803 14.731L86.5986 14.731ZM19.1338 11.5933L19.1338 10.4243L26.3496 10.4243L26.3496 8.22705L21.7793 8.22705L21.7793 2.43506L32.291 2.43506L32.291 3.604L23.0977 3.604L23.0977 7.05811L32.4932 7.05811L32.4932 8.22705L27.668 8.22705L27.668 10.4243L34.8662 10.4243L34.8662 11.5933L19.1338 11.5933ZM65.0918 18.5278L65.0918 9.09717L62.1387 9.09717L62.1387 7.92822L65.0918 7.92822L65.0918 2.43506L66.3838 2.43506L66.3838 18.5278L65.0918 18.5278ZM8.19141 19.0464L8.19141 11.1978L1.13379 11.1978L1.13379 10.0112L12.9199 10.0112Q13.1221 7.92822 13.1221 3.99951L3.69141 3.99951L3.69141 2.83057L14.4316 2.83057Q14.4316 7.18115 14.1855 10.0112L16.8662 10.0112L16.8662 11.1978L9.50098 11.1978L9.50098 19.0464L8.19141 19.0464ZM43.7124 8.5874Q45.9756 6.16162 46.1514 2.98877L38.6455 2.98877L38.6455 4.1665L44.6221 4.1665Q44.165 6.52197 42.1348 8.41602Q40.1045 10.3101 37.5293 11.1274L38.4521 12.1733Q41.4492 11.0132 43.7124 8.5874ZM82.6172 9.16748Q82.8896 6.69775 82.8896 3.24365L74.4521 3.24365L74.4521 4.4126L81.5801 4.4126Q81.5801 6.71533 81.3428 9.07959L82.6172 9.16748ZM62.7627 15.0737Q60.4863 12.8325 59.5811 9.77393Q59.291 11.022 58.3022 12.6216Q57.3135 14.2212 56.1797 15.3022L55.1514 14.4761Q56.6455 13.4214 57.7969 11.1406Q58.9482 8.85986 58.9482 6.68018L58.9482 4.73779L55.7842 4.73779L55.7842 3.56885L63.4482 3.56885L63.4482 4.73779L60.249 4.73779L60.249 6.69775Q60.249 8.81592 61.2817 10.9165Q62.3145 13.0171 63.7559 14.2212L62.7627 15.0737ZM79.0356 11.8394Q82.8545 11.7427 84.041 11.646L83.9707 10.5122Q81.791 10.6528 78.5127 10.6968L78.5127 6.95264L77.2031 6.95264L77.2031 10.7144Q75.2783 10.7671 73.0283 10.7671L73.1514 11.936Q75.2168 11.936 79.0356 11.8394ZM41.6821 17.8687Q43.1367 18.8179 45.791 18.8179Q48.4629 18.8179 49.9175 17.8687Q51.3721 16.9194 51.3721 15.4517Q51.3721 13.9839 49.9131 13.0522Q48.4541 12.1206 45.791 12.1206Q43.1367 12.1206 41.6821 13.0522Q40.2275 13.9839 40.2275 15.4517Q40.2275 16.9194 41.6821 17.8687ZM42.7104 13.8784Q43.8047 13.2544 45.791 13.2544Q47.7686 13.2544 48.8672 13.874Q49.9658 14.4937 49.9658 15.4517Q49.9658 16.4185 48.8804 17.0513Q47.7949 17.6841 45.791 17.6841Q43.7783 17.6841 42.6973 17.0469Q41.6162 16.4097 41.6162 15.4517Q41.6162 14.5024 42.7104 13.8784ZM30.9639 19.0464L30.9639 14.6167L21.3662 14.6167L21.3662 13.4302L32.2734 13.4302L32.2734 19.0464L30.9639 19.0464ZM76.0166 13.5796L76.0166 18.4751L87.0469 18.4751L87.0469 17.3062L77.3262 17.3062L77.3262 13.5796L76.0166 13.5796Z" />
        </g>
      </g>
      <g id="소상공인라이브" transform="translate(374 5)" filter="url(#filter_1)">
        <g id="소상공인라이브">
          <path d="M32.4141 7.92822L32.4141 11.8657L31.1045 11.8657L31.1045 2.09229L32.4141 2.09229L32.4141 6.73291L34.9717 6.73291L34.9717 7.92822L32.4141 7.92822ZM67.9131 14.4761L67.9131 2.09229L69.2314 2.09229L69.2314 14.4761L67.9131 14.4761ZM86.3262 19.0464L86.3262 10.4243L89.2617 10.4243L89.2617 9.23779L86.3262 9.23779L86.3262 2.09229L85.0166 2.09229L85.0166 19.0464L86.3262 19.0464ZM103.913 19.0464L103.913 2.09229L105.231 2.09229L105.231 19.0464L103.913 19.0464ZM50.3438 8.28857Q50.5635 6.34619 50.5635 2.61084L39.8672 2.61084L39.8672 3.78857L49.2451 3.78857Q49.2451 6.3374 49.0869 8.19189L50.3438 8.28857ZM28.1338 10.9517Q27.0176 10.354 25.8135 9.21143Q24.6094 8.06885 24.1523 7.11084Q23.6865 8.20947 22.5264 9.44434Q21.3662 10.6792 20.1094 11.3823L19.1514 10.4771Q21.0146 9.57178 22.2539 7.91064Q23.4932 6.24951 23.4932 4.44775L23.4932 2.67236L24.75 2.67236L24.75 4.44775Q24.75 6.14404 26.0024 7.69971Q27.2549 9.25537 28.9951 9.99365L28.1338 10.9517ZM60.8555 11.3472Q58.957 11.3472 57.6826 10.1475Q56.4082 8.94775 56.4082 7.04053Q56.4082 5.12451 57.6782 3.93359Q58.9482 2.74268 60.8555 2.74268Q62.7627 2.74268 64.0239 3.9292Q65.2852 5.11572 65.2852 7.04053Q65.2852 8.94775 64.0195 10.1475Q62.7539 11.3472 60.8555 11.3472ZM96.4248 14.7661Q94.4912 14.7661 93.3003 13.2061Q92.1094 11.646 92.1094 8.98291Q92.1094 6.28467 93.2871 4.74658Q94.4648 3.2085 96.4248 3.2085Q98.376 3.2085 99.5713 4.74658Q100.767 6.28467 100.767 8.98291Q100.767 11.6636 99.5669 13.2148Q98.3672 14.7661 96.4248 14.7661ZM8.98242 6.46924Q8.33203 7.85791 6.55225 9.19385Q4.77246 10.5298 2.69824 11.1099L1.80176 10.064Q4.78125 9.38721 6.54785 7.62939Q8.31445 5.87158 8.31445 4.34229L8.31445 3.4458L9.66797 3.4458L9.66797 4.34229Q9.66797 5.84521 11.4434 7.60303Q13.2188 9.36084 16.1982 10.064L15.2666 11.0923Q13.2715 10.4858 11.4521 9.14551Q9.63281 7.80518 8.98242 6.46924ZM111.762 3.56885L111.762 11.4702L122.238 11.4702L122.238 3.56885L120.92 3.56885L120.92 6.28467L113.08 6.28467L113.08 3.56885L111.762 3.56885ZM74.2676 8.55225L74.2676 15.2319Q81.2373 15.2319 83.6104 14.854L83.4258 13.7026Q81.6152 14.0806 75.5859 14.0806L75.5859 9.70361L81.7559 9.70361L81.7559 3.62158L74.2676 3.62158L74.2676 4.79053L80.4463 4.79053L80.4463 8.55225L74.2676 8.55225ZM60.8555 3.91162Q59.4668 3.91162 58.5967 4.76416Q57.7266 5.6167 57.7266 7.04053Q57.7266 8.46436 58.5923 9.32129Q59.458 10.1782 60.8555 10.1782Q62.2529 10.1782 63.123 9.32129Q63.9932 8.46436 63.9932 7.04053Q63.9932 5.6167 63.123 4.76416Q62.2529 3.91162 60.8555 3.91162ZM96.4248 4.37744Q95.0713 4.37744 94.2275 5.63867Q93.3838 6.8999 93.3838 8.98291Q93.3838 11.0571 94.2363 12.3271Q95.0889 13.5972 96.4248 13.5972Q97.752 13.5972 98.6089 12.3228Q99.4658 11.0483 99.4658 8.98291Q99.4658 6.89111 98.6265 5.63428Q97.7871 4.37744 96.4248 4.37744ZM37.1338 9.52783L37.1338 10.6968L52.8662 10.6968L52.8662 9.52783L45.1055 9.52783L45.1055 6.09131L43.8135 6.09131L43.8135 9.52783L37.1338 9.52783ZM113.08 7.47119L120.92 7.47119L120.92 10.2837L113.08 10.2837L113.08 7.47119ZM1.13379 16.3833L1.13379 15.2144L8.33203 15.2144L8.33203 11.0923L9.66797 11.0923L9.66797 15.2144L16.8662 15.2144L16.8662 16.3833L1.13379 16.3833ZM40.8823 17.8818Q42.3105 18.7739 44.9648 18.7739Q47.6016 18.7739 49.0298 17.8818Q50.458 16.9897 50.458 15.522Q50.458 14.0454 49.0342 13.1445Q47.6104 12.2437 44.9648 12.2437Q42.3018 12.2437 40.8779 13.1445Q39.4541 14.0454 39.4541 15.522Q39.4541 16.9897 40.8823 17.8818ZM27.1758 18.9058Q24.5303 18.9058 23.0933 17.9873Q21.6563 17.0688 21.6563 15.6099Q21.6563 14.1597 23.0977 13.2456Q24.5391 12.3315 27.1758 12.3315Q29.8213 12.3315 31.2627 13.2412Q32.7041 14.1509 32.7041 15.6099Q32.7041 17.0776 31.2671 17.9917Q29.8301 18.9058 27.1758 18.9058ZM58.5352 18.396L58.5352 12.894L59.8535 12.894L59.8535 17.2095L69.6797 17.2095L69.6797 18.396L58.5352 18.396ZM41.9282 13.9531Q42.9961 13.3599 44.9648 13.3599Q46.9248 13.3599 47.9971 13.9531Q49.0693 14.5464 49.0693 15.522Q49.0693 16.4976 48.0059 17.082Q46.9424 17.6665 44.9648 17.6665Q42.9873 17.6665 41.9238 17.082Q40.8604 16.4976 40.8604 15.522Q40.8604 14.5464 41.9282 13.9531ZM27.1758 13.4478Q25.207 13.4478 24.1304 14.0454Q23.0537 14.6431 23.0537 15.6099Q23.0537 16.5942 24.1348 17.1919Q25.2158 17.7896 27.1758 17.7896Q29.1621 17.7896 30.2432 17.1875Q31.3242 16.5854 31.3242 15.6099Q31.3242 14.6519 30.2432 14.0498Q29.1621 13.4478 27.1758 13.4478ZM124.866 15.0122L109.134 15.0122L109.134 16.2075L124.866 16.2075L124.866 15.0122Z" />
        </g>
      </g>
      <g id="Group-15" transform="translate(1140 5)">
        <g id="Group-9">
          <g id="search-loupe-delete" filter="url(#filter_2)">
            <path d="M0 0L20 0L20 20L0 20L0 0Z" id="Path" fill="none" fill-rule="evenodd" stroke="none" />
            <g id="Group" transform="translate(3.3333333 3.3333333)">
              <path d="M12.445 6.2225L12.445 6.2225C12.445 9.65917 9.65917 12.445 6.2225 12.445L6.2225 12.445C2.78583 12.445 0 9.65917 0 6.2225L0 6.2225C0 2.78583 2.78583 0 6.2225 0L6.2225 0C9.65917 0 12.445 2.78583 12.445 6.2225Z" id="Path" fill="none" fill-rule="evenodd" stroke="#000000" stroke-width="1.5" stroke-linecap="round" stroke-linejoin="round" />
              <path d="M3.54167 3.54167L0 0" transform="translate(10.625 10.625)" id="Path" fill="none" fill-rule="evenodd" stroke="#000000" stroke-width="1.5" stroke-linecap="round" stroke-linejoin="round" />
            </g>
          </g>
        </g>
      </g>
      <g id="Calendar,-Schedule.2" transform="translate(1180 5)" filter="url(#filter_1)">
        <g id="Group" transform="translate(2.5 2.6666667)">
          <path d="M0.416667 0L0.416667 3.33333" transform="translate(10.416667 0)" id="Path" fill="none" fill-rule="evenodd" stroke="#111111" stroke-width="1.5" stroke-linecap="round" stroke-linejoin="round" />
          <path d="M0.416667 0L0.416667 3.33333" transform="translate(3.75 0)" id="Path" fill="none" fill-rule="evenodd" stroke="#111111" stroke-width="1.5" stroke-linecap="round" stroke-linejoin="round" />
          <path d="M0 0.416667L15 0.416667" transform="translate(0 5.4166665)" id="Path" fill="none" fill-rule="evenodd" stroke="#111111" stroke-width="1.5" stroke-linecap="round" stroke-linejoin="round" />
          <path d="M13.3333 0L1.66667 0C0.745833 0 0 0.745833 0 1.66667L0 12.5C0 13.4208 0.745833 14.1667 1.66667 14.1667L13.3333 14.1667C14.2542 14.1667 15 13.4208 15 12.5L15 1.66667C15 0.745833 14.2542 0 13.3333 0Z" transform="translate(0 1.6666666)" id="Path" fill="none" fill-rule="evenodd" stroke="#111111" stroke-width="1.5" stroke-linecap="round" stroke-linejoin="round" />
        </g>
        <path d="M0 0L20 0L20 20L0 20L0 0Z" id="Path" fill="none" fill-rule="evenodd" stroke="none" />
      </g>
      <g id="bag-shopping" transform="translate(1220 5)" filter="url(#filter_1)">
        <path d="M0 0L20 0L20 20L0 20L0 0Z" id="Path" fill="none" fill-rule="evenodd" stroke="none" />
        <g id="icon" transform="translate(2.6666667 1.8333334)">
          <path d="M12.8333 13.3333L1.83333 13.3333C0.820417 13.3333 0 12.481 0 11.4286L0 1.90476C0 0.852381 0.820417 0 1.83333 0L12.8333 0C13.8462 0 14.6667 0.852381 14.6667 1.90476L14.6667 11.4286C14.6667 12.481 13.8462 13.3333 12.8333 13.3333Z" transform="translate(0 3.3333333)" id="Path" fill="none" fill-rule="evenodd" stroke="#111111" stroke-width="1.5" stroke-linecap="round" stroke-linejoin="round" />
          <path d="M0 2.5C0 1.11917 1.11917 0 2.5 0C3.88083 0 5 1.11917 5 2.5" transform="translate(4.8333335 0)" id="Path" fill="none" fill-rule="evenodd" stroke="#111111" stroke-width="1.5" stroke-linecap="round" stroke-linejoin="round" />
        </g>
      </g>
      <g id="User,Profile.12" transform="translate(1260 5)" filter="url(#filter_1)">
        <path d="M0 0L20 0L20 20L0 20L0 0Z" id="Path" fill="none" fill-rule="evenodd" stroke="none" />
        <g id="User,-Profile,-Add">
          <path d="M0 0L20 0L20 20L0 20L0 0Z" id="a" fill="none" fill-rule="evenodd" stroke="none" />
          <path d="M5.6676 0.972406C6.96414 2.26895 6.96414 4.37106 5.6676 5.6676C4.37106 6.96414 2.26895 6.96414 0.972406 5.6676C-0.324135 4.37106 -0.324135 2.26895 0.972406 0.972406C2.26895 -0.324135 4.37106 -0.324135 5.6676 0.972406" transform="translate(6.6799855 2.5000021)" id="Path" fill="none" fill-rule="evenodd" stroke="#111111" stroke-width="1.5" stroke-linecap="round" stroke-linejoin="round" />
          <path d="M7.5 0C11.295 0 15 1.63917 15 4.16L15 4.99333C15 5.45333 14.6267 5.82667 14.1667 5.82667L0.833333 5.82667C0.373333 5.82667 0 5.45333 0 4.99333L0 4.16C0 1.63833 3.705 0 7.5 0" transform="translate(2.5 11.673333)" id="Path" fill="none" fill-rule="evenodd" stroke="#111111" stroke-width="1.5" stroke-linecap="round" stroke-linejoin="round" />
          <path d="M0 0L20 0L20 20L0 20L0 0Z" id="a" fill="none" fill-rule="evenodd" stroke="none" />
        </g>
      </g>
    </g>
    <g id="로그인" transform="translate(1329 15)" filter="url(#filter_3)">
      <g id="로그인" fill="#555555">
        <path d="M30.5024 1.0564L30.5024 8.62427L31.3081 8.62427L31.3081 1.0564L30.5024 1.0564ZM24.2505 5.979Q25.0293 6.71216 26.1895 6.71216Q27.3496 6.71216 28.123 5.979Q28.8965 5.24585 28.8965 4.08032Q28.8965 2.90405 28.1257 2.17896Q27.355 1.45386 26.1895 1.45386Q25.0239 1.45386 24.2478 2.18164Q23.4717 2.90942 23.4717 4.08032Q23.4717 5.24585 24.2505 5.979ZM2.14307 4.19312L8.0083 4.19312L8.0083 2.66235L2.16455 2.66235L2.16455 1.95874L8.80859 1.95874L8.80859 4.88599L2.95947 4.88599L2.95947 6.59937L9.10938 6.59937L9.10938 7.31372L5.9082 7.31372L5.9082 9.19897L10.3071 9.19897L10.3071 9.91333L0.692871 9.91333L0.692871 9.19897L5.10254 9.19897L5.10254 7.31372L2.14307 7.31372L2.14307 4.19312ZM11.6929 9.38159L11.6929 8.66724L18.6216 8.66724Q18.8418 7.04517 18.8418 5.20288L18.8418 2.74829L13.1538 2.74829L13.1538 2.03394L19.6475 2.03394L19.6475 4.88599Q19.6475 6.45972 19.4058 8.66724L21.3071 8.66724L21.3071 9.38159L11.6929 9.38159ZM24.8091 2.68921Q25.3408 2.16821 26.1895 2.16821Q27.0435 2.16821 27.5752 2.68921Q28.1069 3.21021 28.1069 4.08032Q28.1069 4.95044 27.5752 5.47412Q27.0435 5.9978 26.1895 5.9978Q25.3354 5.9978 24.8064 5.47412Q24.2773 4.95044 24.2773 4.08032Q24.2773 3.21021 24.8091 2.68921ZM24.7715 7.65747L24.7715 11.0198L31.582 11.0198L31.582 10.2947L25.5771 10.2947L25.5771 7.65747L24.7715 7.65747Z" />
      </g>
    </g>
    <g id="회원가입" transform="translate(1273 15)" filter="url(#filter_3)">
      <g id="회원가입" fill="#555555">
        <path d="M8.58838 1.0564L8.58838 11.4172L9.39404 11.4172L9.39404 1.0564L8.58838 1.0564ZM19.5562 8.14087L19.5562 9.25269L20.3726 9.25269L20.3726 1.0564L19.5562 1.0564L19.5562 7.42651L17.2896 7.42651L17.2896 8.14087L19.5562 8.14087ZM30.7549 6.04077L30.7549 11.4172L29.9546 11.4172L29.9546 1.0564L30.7549 1.0564L30.7549 5.32642L32.6133 5.32642L32.6133 6.04077L30.7549 6.04077ZM41.5024 1.0564L41.5024 6.32544L42.3081 6.32544L42.3081 1.0564L41.5024 1.0564ZM4.66211 1.07788L3.86182 1.07788L3.86182 2.4314L1.15479 2.4314L1.15479 3.14575L7.34766 3.14575L7.34766 2.4314L4.66211 2.4314L4.66211 1.07788ZM35.2424 5.36401Q35.9756 6.05151 37.1357 6.05151Q38.2905 6.05151 39.0291 5.3667Q39.7676 4.68189 39.7676 3.62915Q39.7676 2.58179 39.0317 1.90234Q38.2959 1.2229 37.1357 1.2229Q35.9702 1.2229 35.2397 1.90503Q34.5093 2.58716 34.5093 3.62915Q34.5093 4.67651 35.2424 5.36401ZM13.6614 4.6228Q14.3784 5.19214 15.5117 5.19214Q16.645 5.19214 17.3594 4.62549Q18.0737 4.05884 18.0737 3.21021Q18.0737 2.36694 17.3621 1.80566Q16.6504 1.24438 15.5117 1.24438Q14.3677 1.24439 13.656 1.81104Q12.9443 2.37769 12.9443 3.21021Q12.9443 4.05347 13.6614 4.6228ZM35.8064 2.39111Q36.3032 1.91577 37.1357 1.91577Q37.9683 1.91577 38.4651 2.39111Q38.9619 2.86646 38.9619 3.62915Q38.9619 4.39722 38.4678 4.87793Q37.9736 5.35864 37.1357 5.35864Q36.2979 5.35864 35.8037 4.87793Q35.3096 4.39722 35.3096 3.62915Q35.3096 2.86646 35.8064 2.39111ZM14.2334 2.31323Q14.7168 1.92651 15.5117 1.92651Q16.3066 1.92651 16.7927 2.31323Q17.2788 2.69995 17.2788 3.21021Q17.2788 3.7312 16.7927 4.12061Q16.3066 4.51001 15.5117 4.51001Q14.7168 4.51001 14.2334 4.12061Q13.75 3.7312 13.75 3.21021Q13.75 2.69995 14.2334 2.31323ZM28.2036 1.98022Q28.0854 6.38989 23.5415 8.96802L22.9238 8.31812Q24.5513 7.64673 25.8403 6.14282Q27.1294 4.63892 27.3442 2.69458L23.3643 2.69458L23.3643 1.98022L28.2036 1.98022ZM4.65137 8.96802L4.65137 7.48022Q5.7041 7.38354 6.28418 6.85449Q6.86426 6.32544 6.86426 5.54663Q6.86426 4.75171 6.1687 4.22534Q5.47314 3.69897 4.27002 3.69897Q3.05615 3.69897 2.35254 4.22803Q1.64893 4.75708 1.64893 5.61108Q1.64893 6.35767 2.22363 6.87061Q2.79834 7.38354 3.86182 7.48022L3.86182 8.97876Q2.42773 9.01099 0.805664 9.01099L0.880859 9.7146Q2.18603 9.7146 4.58423 9.66089Q6.98242 9.60718 7.83105 9.53735L7.78809 8.84448Q7.46045 8.87671 6.5957 8.90356L4.65137 8.96802ZM2.9541 4.72217Q3.44287 4.37573 4.27002 4.37573Q5.09717 4.37573 5.57788 4.72485Q6.05859 5.07398 6.05859 5.61108Q6.05859 6.13745 5.58862 6.47314Q5.11865 6.80884 4.27002 6.80884Q3.41602 6.80884 2.94067 6.47583Q2.46533 6.14282 2.46533 5.61108Q2.46533 5.0686 2.9541 4.72217ZM15.9521 6.65308Q18.0469 6.56714 18.8311 6.51343L18.7773 5.82056Q15.9038 6.01929 11.9883 6.01929L12.1011 6.76587Q13.0786 6.76587 15.1572 6.69067L15.1572 8.88745L15.9521 8.88745L15.9521 6.65308ZM35.938 6.89478L35.938 11.1326L42.3081 11.1326L42.3081 6.89478L41.5132 6.89478L41.5132 8.38257L36.7275 8.38257L36.7275 6.89478L35.938 6.89478ZM13.5942 8.03882L13.5942 11.1433L20.625 11.1433L20.625 10.429L14.3999 10.429L14.3999 8.03882L13.5942 8.03882ZM36.7275 9.08618L41.5132 9.08618L41.5132 10.429L36.7275 10.429L36.7275 9.08618Z" />
      </g>
    </g>
    <g id="FAQ" transform="translate(1236 15)" filter="url(#filter_3)">
      <g id="FAQ" fill="#555555">
        <path d="M21.2422 8.48242Q21.6094 7.625 21.6094 6.5Q21.6094 5.23438 21.1523 4.3125Q20.6953 3.39063 19.8984 2.89063Q19.1016 2.39063 18.0781 2.39063Q17.0547 2.39063 16.2578 2.89063Q15.4609 3.39063 15.0039 4.3125Q14.5469 5.23438 14.5469 6.5Q14.5469 7.76563 15.0039 8.6875Q15.4609 9.60938 16.2578 10.1094Q17.0547 10.6094 18.0781 10.6094Q18.8555 10.6094 19.5195 10.3125L20.2188 11.25L21.2813 11.25L20.2383 9.86328Q20.875 9.33984 21.2422 8.48242ZM0.96875 10.5L0.96875 2.5L5.76563 2.5L5.76563 3.35938L1.9375 3.35938L1.9375 6.0625L5.40625 6.0625L5.40625 6.92188L1.9375 6.92188L1.9375 10.5L0.96875 10.5ZM7.75 10.5L6.73438 10.5L9.67188 2.5L10.6719 2.5L13.6094 10.5L12.5938 10.5L11.7891 8.23438L8.55469 8.23438L7.75 10.5ZM18.8281 8L17.7656 8L18.9531 9.55469Q18.543 9.70313 18.0781 9.70313Q17.3516 9.70313 16.7637 9.33594Q16.1758 8.96875 15.8301 8.25391Q15.4844 7.53906 15.4844 6.5Q15.4844 5.46094 15.8301 4.74609Q16.1758 4.03125 16.7637 3.66406Q17.3516 3.29688 18.0781 3.29688Q18.8047 3.29688 19.3926 3.66406Q19.9805 4.03125 20.3262 4.74609Q20.6719 5.46094 20.6719 6.5Q20.6719 7.40625 20.4043 8.06445Q20.1367 8.72266 19.6797 9.12109L18.8281 8ZM8.85938 7.375L11.4844 7.375L10.2031 3.76562L10.1406 3.76562L8.85938 7.375Z" />
      </g>
    </g>
  </g>
</svg>