<?xml version="1.0" encoding="utf-8"?>
<svg width="6px" height="10px" viewBox="0 0 6 10" version="1.1" xmlns:xlink="http://www.w3.org/1999/xlink" xmlns="http://www.w3.org/2000/svg">
  <defs>
    <filter id="filter_1">
      <feColorMatrix in="SourceGraphic" type="matrix" values="0 0 0 0 0.003921569 0 0 0 0 0.3529412 0 0 0 0 0.65882355 0 0 0 1 0" />
    </filter>
  </defs>
  <g id="Group">
    <g id="Group">
      <g id="Arrow-Copy" filter="url(#filter_1)">
        <path d="M0.21967 8.21967L0.75 7.68934L3.68934 4.75L0.75 1.81066L0.21967 1.28033C0.0732232 1.13388 0 0.957107 0 0.75C0 0.542893 0.0732232 0.366116 0.21967 0.21967C0.366116 0.0732232 0.542893 0 0.75 0C0.957107 0 1.13388 0.0732232 1.28033 0.21967L5.28033 4.21967C5.42678 4.36612 5.5 4.54289 5.5 4.75C5.5 4.95711 5.42678 5.13388 5.28033 5.28033L1.28033 9.28033C1.13388 9.42678 0.957107 9.5 0.75 9.5C0.542893 9.5 0.366116 9.42678 0.21967 9.28033C0.149344 9.21 0.0951505 9.1289 0.0570903 9.03701C0.01903 8.94513 -5.96046e-08 8.84945 0 8.75C5.96046e-08 8.65054 0.0190302 8.55487 0.0570903 8.46299C0.0951506 8.3711 0.149344 8.29 0.21967 8.21967L0.21967 8.21967Z" id="Vector" fill="#FFFFFF" fill-rule="evenodd" stroke="none" />
      </g>
    </g>
  </g>
</svg>