<?xml version="1.0" encoding="utf-8"?>
<svg width="15px" height="15px" viewBox="0 0 15 15" version="1.1" xmlns:xlink="http://www.w3.org/1999/xlink" xmlns="http://www.w3.org/2000/svg">
  <g id="Group-8">
    <path d="M7.5 15C11.6421 15 15 11.6421 15 7.5C15 3.35786 11.6421 0 7.5 0C3.35786 0 0 3.35786 0 7.5C0 11.6421 3.35786 15 7.5 15Z" id="Oval" fill="#FF7300" fill-rule="evenodd" stroke="none" />
    <path d="M0.499 0L8.501 0Q8.55015 0 8.59835 0.00958814Q8.64655 0.0191763 8.69196 0.0379841Q8.73736 0.0567919 8.77823 0.0840967Q8.81909 0.111401 8.85385 0.146154Q8.8886 0.180906 8.9159 0.22177Q8.94321 0.262635 8.96202 0.308041Q8.98082 0.353447 8.99041 0.40165Q9 0.449853 9 0.499L9 0.501Q9 0.550147 8.99041 0.59835Q8.98082 0.646553 8.96202 0.691959Q8.94321 0.737365 8.9159 0.778229Q8.8886 0.819094 8.85385 0.853846Q8.81909 0.888599 8.77823 0.915903Q8.73736 0.943208 8.69196 0.962016Q8.64655 0.980824 8.59835 0.990412Q8.55015 1 8.501 1L0.499 1Q0.449853 1 0.40165 0.990412Q0.353447 0.980824 0.308041 0.962016Q0.262635 0.943208 0.22177 0.915903Q0.180906 0.888599 0.146154 0.853846Q0.111401 0.819094 0.0840967 0.778229Q0.0567919 0.737365 0.0379841 0.691959Q0.0191763 0.646553 0.00958814 0.59835Q0 0.550147 0 0.501L0 0.499Q0 0.449853 0.00958814 0.40165Q0.0191763 0.353447 0.0379841 0.308041Q0.0567919 0.262635 0.0840967 0.22177Q0.111401 0.180906 0.146154 0.146154Q0.180906 0.111401 0.22177 0.0840967Q0.262635 0.0567919 0.308041 0.0379841Q0.353447 0.0191763 0.40165 0.00958814Q0.449853 0 0.499 0Z" transform="matrix(0.70710677 -0.70710677 0.70710677 0.70710677 3.96447 10.32843)" id="Rectangle" fill="#FFFFFF" fill-rule="evenodd" stroke="none" />
    <path d="M0.499 0L8.501 0Q8.55015 0 8.59835 0.00958814Q8.64655 0.0191763 8.69196 0.0379841Q8.73736 0.0567919 8.77823 0.0840967Q8.81909 0.111401 8.85385 0.146154Q8.8886 0.180906 8.9159 0.22177Q8.94321 0.262635 8.96202 0.308041Q8.98082 0.353447 8.99041 0.40165Q9 0.449853 9 0.499L9 0.501Q9 0.550147 8.99041 0.59835Q8.98082 0.646553 8.96202 0.691959Q8.94321 0.737365 8.9159 0.778229Q8.8886 0.819094 8.85385 0.853846Q8.81909 0.888599 8.77823 0.915903Q8.73736 0.943208 8.69196 0.962016Q8.64655 0.980824 8.59835 0.990412Q8.55015 1 8.501 1L0.499 1Q0.449853 1 0.40165 0.990412Q0.353447 0.980824 0.308041 0.962016Q0.262635 0.943208 0.22177 0.915903Q0.180906 0.888599 0.146154 0.853846Q0.111401 0.819094 0.0840967 0.778229Q0.0567919 0.737365 0.0379841 0.691959Q0.0191763 0.646553 0.00958814 0.59835Q0 0.550147 0 0.501L0 0.499Q0 0.449853 0.00958814 0.40165Q0.0191763 0.353447 0.0379841 0.308041Q0.0567919 0.262635 0.0840967 0.22177Q0.111401 0.180906 0.146154 0.146154Q0.180906 0.111401 0.22177 0.0840967Q0.262635 0.0567919 0.308041 0.0379841Q0.353447 0.0191763 0.40165 0.00958814Q0.449853 0 0.499 0Z" transform="matrix(0.70710677 0.70710677 -0.70710677 0.70710677 4.67157 3.9644775)" id="Rectangle-Copy-13" fill="#FFFFFF" fill-rule="evenodd" stroke="none" />
  </g>
</svg>