<?xml version="1.0" encoding="utf-8"?>
<svg width="24px" height="24px" viewBox="0 0 24 24" version="1.1" xmlns:xlink="http://www.w3.org/1999/xlink" xmlns="http://www.w3.org/2000/svg">
  <g id="Group-8-Copy">
    <path d="M11.999 0L12.001 0Q12.2956 0 12.5898 0.0144533Q12.884 0.0289066 13.1771 0.0577785Q13.4702 0.0866503 13.7616 0.129871Q14.053 0.173092 14.3419 0.230557Q14.6308 0.288023 14.9165 0.359595Q15.2022 0.431167 15.4841 0.516673Q15.766 0.602179 16.0433 0.701413Q16.3207 0.800647 16.5928 0.913369Q16.865 1.02609 17.1312 1.15203Q17.3975 1.27797 17.6573 1.41683Q17.9171 1.55568 18.1697 1.70711Q18.4224 1.85855 18.6673 2.0222Q18.9122 2.18584 19.1488 2.36131Q19.3854 2.53678 19.6131 2.72365Q19.8408 2.91051 20.059 3.10833Q20.2773 3.30614 20.4856 3.51443Q20.6939 3.72271 20.8917 3.94096Q21.0895 4.15922 21.2764 4.38691Q21.4632 4.61461 21.6387 4.8512Q21.8142 5.0878 21.9778 5.33271Q22.1414 5.57763 22.2929 5.83028Q22.4443 6.08293 22.5832 6.34271Q22.722 6.60249 22.848 6.86877Q22.9739 7.13504 23.0866 7.40718Q23.1994 7.67932 23.2986 7.95666Q23.3978 8.234 23.4833 8.51587Q23.5688 8.79775 23.6404 9.08348Q23.712 9.36921 23.7694 9.65811Q23.8269 9.94701 23.8701 10.2384Q23.9133 10.5298 23.9422 10.8229Q23.9711 11.116 23.9855 11.4102Q24 11.7044 24 11.999L24 12.001Q24 12.2956 23.9855 12.5898Q23.9711 12.884 23.9422 13.1771Q23.9133 13.4702 23.8701 13.7616Q23.8269 14.053 23.7694 14.3419Q23.712 14.6308 23.6404 14.9165Q23.5688 15.2022 23.4833 15.4841Q23.3978 15.766 23.2986 16.0433Q23.1994 16.3207 23.0866 16.5928Q22.9739 16.865 22.848 17.1312Q22.722 17.3975 22.5832 17.6573Q22.4443 17.9171 22.2929 18.1697Q22.1414 18.4224 21.9778 18.6673Q21.8142 18.9122 21.6387 19.1488Q21.4632 19.3854 21.2764 19.6131Q21.0895 19.8408 20.8917 20.059Q20.6939 20.2773 20.4856 20.4856Q20.2773 20.6939 20.059 20.8917Q19.8408 21.0895 19.6131 21.2764Q19.3854 21.4632 19.1488 21.6387Q18.9122 21.8142 18.6673 21.9778Q18.4224 22.1414 18.1697 22.2929Q17.9171 22.4443 17.6573 22.5832Q17.3975 22.722 17.1312 22.848Q16.865 22.9739 16.5928 23.0866Q16.3207 23.1994 16.0433 23.2986Q15.766 23.3978 15.4841 23.4833Q15.2022 23.5688 14.9165 23.6404Q14.6308 23.712 14.3419 23.7694Q14.053 23.8269 13.7616 23.8701Q13.4702 23.9133 13.1771 23.9422Q12.884 23.9711 12.5898 23.9855Q12.2956 24 12.001 24L11.999 24Q11.7044 24 11.4102 23.9855Q11.116 23.9711 10.8229 23.9422Q10.5298 23.9133 10.2384 23.8701Q9.94701 23.8269 9.65811 23.7694Q9.36921 23.712 9.08348 23.6404Q8.79775 23.5688 8.51587 23.4833Q8.234 23.3978 7.95666 23.2986Q7.67932 23.1994 7.40718 23.0866Q7.13504 22.9739 6.86877 22.848Q6.60249 22.722 6.34271 22.5832Q6.08293 22.4443 5.83028 22.2929Q5.57763 22.1414 5.33271 21.9778Q5.0878 21.8142 4.8512 21.6387Q4.61461 21.4632 4.38691 21.2764Q4.15922 21.0895 3.94096 20.8917Q3.72271 20.6939 3.51443 20.4856Q3.30614 20.2773 3.10833 20.059Q2.91051 19.8408 2.72365 19.6131Q2.53678 19.3854 2.36131 19.1488Q2.18584 18.9122 2.0222 18.6673Q1.85855 18.4224 1.70711 18.1697Q1.55568 17.9171 1.41683 17.6573Q1.27797 17.3975 1.15203 17.1312Q1.02609 16.865 0.913369 16.5928Q0.800647 16.3207 0.701413 16.0433Q0.602179 15.766 0.516673 15.4841Q0.431167 15.2022 0.359595 14.9165Q0.288023 14.6308 0.230557 14.3419Q0.173092 14.053 0.129871 13.7616Q0.0866503 13.4702 0.0577785 13.1771Q0.0289066 12.884 0.0144533 12.5898Q0 12.2956 0 12.001L0 11.999Q0 11.7044 0.0144533 11.4102Q0.0289066 11.116 0.0577785 10.8229Q0.0866503 10.5298 0.129871 10.2384Q0.173092 9.94701 0.230557 9.65811Q0.288023 9.36921 0.359595 9.08348Q0.431167 8.79775 0.516673 8.51587Q0.602179 8.234 0.701413 7.95666Q0.800647 7.67932 0.913369 7.40718Q1.02609 7.13504 1.15203 6.86877Q1.27797 6.60249 1.41683 6.34271Q1.55568 6.08293 1.70711 5.83028Q1.85855 5.57763 2.0222 5.33271Q2.18584 5.0878 2.36131 4.8512Q2.53678 4.61461 2.72365 4.38691Q2.91051 4.15922 3.10833 3.94096Q3.30614 3.72271 3.51443 3.51443Q3.72271 3.30614 3.94096 3.10833Q4.15922 2.91051 4.38691 2.72365Q4.61461 2.53678 4.8512 2.36131Q5.0878 2.18584 5.33271 2.0222Q5.57763 1.85855 5.83028 1.70711Q6.08293 1.55568 6.34271 1.41683Q6.60249 1.27797 6.86877 1.15203Q7.13504 1.02609 7.40718 0.913369Q7.67932 0.800647 7.95666 0.701413Q8.234 0.602179 8.51587 0.516673Q8.79775 0.431167 9.08348 0.359595Q9.36921 0.288023 9.65811 0.230557Q9.94701 0.173092 10.2384 0.129871Q10.5298 0.0866503 10.8229 0.0577785Q11.116 0.0289066 11.4102 0.0144533Q11.7044 0 11.999 0Z" id="Rectangle-Copy-29" fill="#FF7300" fill-rule="evenodd" stroke="none" />
    <g id="Group-4" transform="matrix(0.70710677 0.70710677 -0.70710677 0.70710677 12 4.928932)">
      <path d="M0.713286 0L0.715286 0Q0.785538 0 0.854441 0.0137056Q0.923343 0.0274112 0.988248 0.0542956Q1.05315 0.0811801 1.11157 0.12021Q1.16998 0.159241 1.21965 0.208917Q1.26933 0.258593 1.30836 0.317005Q1.34739 0.375418 1.37428 0.440323Q1.40116 0.505228 1.41487 0.574131Q1.42857 0.643033 1.42857 0.713286L1.42857 9.28671Q1.42857 9.35697 1.41487 9.42587Q1.40116 9.49477 1.37428 9.55968Q1.34739 9.62458 1.30836 9.68299Q1.26933 9.74141 1.21965 9.79108Q1.16998 9.84076 1.11157 9.87979Q1.05315 9.91882 0.988248 9.9457Q0.923343 9.97259 0.854441 9.98629Q0.785538 10 0.715286 10L0.713286 10Q0.643033 10 0.574131 9.98629Q0.505228 9.97259 0.440323 9.9457Q0.375418 9.91882 0.317005 9.87979Q0.258593 9.84076 0.208917 9.79108Q0.159241 9.74141 0.12021 9.68299Q0.0811801 9.62458 0.0542956 9.55968Q0.0274112 9.49477 0.0137056 9.42587Q0 9.35697 0 9.28671L0 0.713286Q0 0.643033 0.0137056 0.574131Q0.0274112 0.505228 0.0542956 0.440323Q0.0811801 0.375418 0.12021 0.317005Q0.159241 0.258593 0.208917 0.208917Q0.258593 0.159241 0.317005 0.12021Q0.375418 0.0811801 0.440323 0.0542956Q0.505228 0.0274112 0.574131 0.0137056Q0.643033 0 0.713286 0L0.713286 0Z" transform="translate(4.285714 0)" id="Rectangle" fill="#FFFFFF" fill-rule="evenodd" stroke="none" />
      <path d="M0.713286 1.11022e-15L0.715286 1.11022e-15Q0.785538 1.11022e-15 0.854441 0.0137056Q0.923343 0.0274112 0.988248 0.0542956Q1.05315 0.0811801 1.11157 0.12021Q1.16998 0.159241 1.21965 0.208917Q1.26933 0.258593 1.30836 0.317005Q1.34739 0.375418 1.37428 0.440323Q1.40116 0.505228 1.41487 0.574131Q1.42857 0.643033 1.42857 0.713286L1.42857 9.28671Q1.42857 9.35697 1.41487 9.42587Q1.40116 9.49477 1.37428 9.55968Q1.34739 9.62458 1.30836 9.68299Q1.26933 9.74141 1.21965 9.79108Q1.16998 9.84076 1.11157 9.87979Q1.05315 9.91882 0.988248 9.9457Q0.923343 9.97259 0.854441 9.98629Q0.785538 10 0.715286 10L0.713286 10Q0.643033 10 0.574131 9.98629Q0.505228 9.97259 0.440323 9.9457Q0.375418 9.91882 0.317005 9.87979Q0.258593 9.84076 0.208917 9.79108Q0.159241 9.74141 0.12021 9.68299Q0.0811801 9.62458 0.0542956 9.55968Q0.0274112 9.49477 0.0137056 9.42587Q0 9.35697 0 9.28671L0 0.713286Q0 0.643033 0.0137056 0.574131Q0.0274112 0.505228 0.0542956 0.440323Q0.0811801 0.375418 0.12021 0.317005Q0.159241 0.258593 0.208917 0.208917Q0.258593 0.159241 0.317005 0.12021Q0.375418 0.0811801 0.440323 0.0542956Q0.505228 0.0274112 0.574131 0.0137056Q0.643033 1.11022e-15 0.713286 1.11022e-15L0.713286 1.11022e-15Z" transform="matrix(-4.371139E-08 1 -1 -4.371139E-08 10 4.285714)" id="Rectangle-Copy-2" fill="#FFFFFF" fill-rule="evenodd" stroke="none" />
    </g>
  </g>
</svg>