<?xml version="1.0" encoding="utf-8"?>
<svg width="22px" height="22px" viewBox="0 0 22 22" version="1.1" xmlns:xlink="http://www.w3.org/1999/xlink" xmlns="http://www.w3.org/2000/svg">
  <defs>
    <filter id="filter_1">
      <feColorMatrix in="SourceGraphic" type="matrix" values="0 0 0 0 0.06666667 0 0 0 0 0.06666667 0 0 0 0 0.06666667 0 0 0 1 0" />
    </filter>
  </defs>
  <g id="bag-shopping" transform="translate(0.75 0.75)" filter="url(#filter_1)">
    <path d="M0 0L20 0L20 20L0 20L0 0Z" id="Path" fill="none" fill-rule="evenodd" stroke="none" />
    <g id="icon" transform="translate(2.6666667 1.8333334)">
      <path d="M12.8333 13.3333L1.83333 13.3333C0.820417 13.3333 0 12.481 0 11.4286L0 1.90476C0 0.852381 0.820417 0 1.83333 0L12.8333 0C13.8462 0 14.6667 0.852381 14.6667 1.90476L14.6667 11.4286C14.6667 12.481 13.8462 13.3333 12.8333 13.3333Z" transform="translate(0 3.3333333)" id="Path" fill="none" fill-rule="evenodd" stroke="#111111" stroke-width="1.5" stroke-linecap="round" stroke-linejoin="round" />
      <path d="M0 2.5C0 1.11917 1.11917 0 2.5 0C3.88083 0 5 1.11917 5 2.5" transform="translate(4.8333335 0)" id="Path" fill="none" fill-rule="evenodd" stroke="#111111" stroke-width="1.5" stroke-linecap="round" stroke-linejoin="round" />
    </g>
  </g>
</svg>