<?xml version="1.0" encoding="utf-8"?>
<svg width="15px" height="15px" viewBox="0 0 15 15" version="1.1" xmlns:xlink="http://www.w3.org/1999/xlink" xmlns="http://www.w3.org/2000/svg">
  <defs>
    <path d="M0.832333 0L0.834333 0Q0.916311 0 0.996713 0.015993Q1.07712 0.0319861 1.15285 0.0633576Q1.22859 0.0947291 1.29675 0.140273Q1.36491 0.185818 1.42288 0.243785Q1.48085 0.301752 1.52639 0.369914Q1.57194 0.438076 1.60331 0.513813Q1.63468 0.589551 1.65067 0.669953Q1.66667 0.750356 1.66667 0.832333L1.66667 14.1677Q1.66667 14.2496 1.65067 14.33Q1.63468 14.4104 1.60331 14.4862Q1.57194 14.5619 1.52639 14.6301Q1.48085 14.6982 1.42288 14.7562Q1.36491 14.8142 1.29675 14.8597Q1.22859 14.9053 1.15285 14.9366Q1.07712 14.968 0.996713 14.984Q0.916311 15 0.834333 15L0.832333 15Q0.750356 15 0.669953 14.984Q0.589551 14.968 0.513813 14.9366Q0.438076 14.9053 0.369914 14.8597Q0.301752 14.8142 0.243785 14.7562Q0.185818 14.6982 0.140273 14.6301Q0.0947291 14.5619 0.0633576 14.4862Q0.0319861 14.4104 0.015993 14.33Q0 14.2496 0 14.1677L0 0.832333Q0 0.750356 0.015993 0.669953Q0.0319861 0.589551 0.0633576 0.513813Q0.0947291 0.438076 0.140273 0.369914Q0.185818 0.301752 0.243785 0.243785Q0.301752 0.185818 0.369914 0.140273Q0.438076 0.0947291 0.513813 0.0633576Q0.589551 0.0319861 0.669953 0.015993Q0.750356 0 0.832333 0Z" transform="translate(6.6666665 0)" id="path_1" />
    <clipPath id="clip_1">
      <use xlink:href="#path_1" />
    </clipPath>
  </defs>
  <g id="Group-4">
    <g id="Rectangle">
      <use stroke="none" fill="#111111" xlink:href="#path_1" fill-rule="evenodd" />
      <g clip-path="url(#clip_1)">
        <use xlink:href="#path_1" fill="none" stroke="#111111" stroke-width="2" />
      </g>
    </g>
    <path d="M0.832333 6.245e-16L0.834333 6.245e-16Q0.916311 6.245e-16 0.996713 0.015993Q1.07712 0.0319861 1.15285 0.0633576Q1.22859 0.0947291 1.29675 0.140273Q1.36491 0.185818 1.42288 0.243785Q1.48085 0.301752 1.52639 0.369914Q1.57194 0.438076 1.60331 0.513813Q1.63468 0.589551 1.65067 0.669953Q1.66667 0.750356 1.66667 0.832333L1.66667 14.1677Q1.66667 14.2496 1.65067 14.33Q1.63468 14.4104 1.60331 14.4862Q1.57194 14.5619 1.52639 14.6301Q1.48085 14.6982 1.42288 14.7562Q1.36491 14.8142 1.29675 14.8597Q1.22859 14.9053 1.15285 14.9366Q1.07712 14.968 0.996713 14.984Q0.916311 15 0.834333 15L0.832333 15Q0.750356 15 0.669953 14.984Q0.589551 14.968 0.513813 14.9366Q0.438076 14.9053 0.369914 14.8597Q0.301752 14.8142 0.243785 14.7562Q0.185818 14.6982 0.140273 14.6301Q0.0947291 14.5619 0.0633576 14.4862Q0.0319861 14.4104 0.015993 14.33Q0 14.2496 0 14.1677L0 0.832333Q0 0.750356 0.015993 0.669953Q0.0319861 0.589551 0.0633576 0.513813Q0.0947291 0.438076 0.140273 0.369914Q0.185818 0.301752 0.243785 0.243785Q0.301752 0.185818 0.369914 0.140273Q0.438076 0.0947291 0.513813 0.0633576Q0.589551 0.0319861 0.669953 0.015993Q0.750356 6.245e-16 0.832333 6.245e-16Z" transform="matrix(-4.371139E-08 1 -1 -4.371139E-08 15 6.6666665)" id="Rectangle-Copy-2" fill="#111111" fill-rule="evenodd" stroke="none" />
  </g>
</svg>