<?xml version="1.0" encoding="utf-8"?>
<svg width="62px" height="62px" viewBox="0 0 62 62" version="1.1" xmlns:xlink="http://www.w3.org/1999/xlink" xmlns="http://www.w3.org/2000/svg">
  <defs>
    <filter filterUnits="userSpaceOnUse" color-interpolation-filters="sRGB" id="filter_1">
      <feFlood flood-opacity="0" result="BackgroundImageFix" />
      <feColorMatrix in="SourceAlpha" type="matrix" values="0 0 0 0 0 0 0 0 0 0 0 0 0 0 0 0 0 0 127 0" />
      <feOffset dx="0" dy="5" />
      <feGaussianBlur stdDeviation="10" />
      <feColorMatrix type="matrix" values="0 0 0 0 0 0 0 0 0 0 0 0 0 0 0 0 0 0 0.050980393 0" />
      <feBlend mode="normal" in2="BackgroundImageFix" result="effect0_dropShadow" />
      <feBlend mode="normal" in="SourceGraphic" in2="effect0_dropShadow" result="shape" />
    </filter>
    <path d="M14.999 0L30.001 0Q30.3692 0 30.737 0.0180669Q31.1047 0.0361339 31.4712 0.0722243Q31.8376 0.108315 32.2018 0.162341Q32.566 0.216368 32.9272 0.288202Q33.2883 0.360035 33.6455 0.449501Q34.0026 0.538968 34.355 0.645852Q34.7073 0.752736 35.054 0.87678Q35.4007 1.00082 35.7409 1.14173Q36.081 1.28264 36.4139 1.44006Q36.7467 1.59749 37.0715 1.77106Q37.3962 1.94463 37.712 2.13393Q38.0278 2.32322 38.334 2.52779Q38.6401 2.73235 38.9359 2.95169Q39.2316 3.17103 39.5163 3.40462Q39.8009 3.6382 40.0737 3.88547Q40.3465 4.13274 40.6069 4.39311Q40.8672 4.65346 41.1145 4.92629Q41.3618 5.19911 41.5954 5.48373Q41.829 5.76836 42.0483 6.06411Q42.2676 6.35985 42.4722 6.666Q42.6768 6.97215 42.8661 7.28797Q43.0554 7.60379 43.2289 7.92852Q43.4025 8.25325 43.5599 8.5861Q43.7174 8.91895 43.8583 9.25913Q43.9992 9.59931 44.1232 9.94599Q44.2473 10.2927 44.3541 10.645Q44.461 10.9974 44.5505 11.3545Q44.64 11.7117 44.7118 12.0728Q44.7836 12.434 44.8377 12.7982Q44.8917 13.1624 44.9278 13.5288Q44.9639 13.8953 44.9819 14.263Q45 14.6308 45 14.999L45 36.2539Q45 36.4686 44.9895 36.683Q44.9789 36.8975 44.9579 37.1111Q44.9368 37.3248 44.9053 37.5372Q44.8738 37.7496 44.8319 37.9602Q44.7901 38.1707 44.7379 38.379Q44.6857 38.5873 44.6234 38.7927Q44.5611 38.9982 44.4887 39.2004Q44.4164 39.4025 44.3342 39.6009Q44.2521 39.7992 44.1603 39.9933Q44.0685 40.1874 43.9673 40.3768Q43.8661 40.5661 43.7557 40.7503Q43.6453 40.9344 43.526 41.113Q43.4067 41.2915 43.2788 41.4639Q43.1509 41.6364 43.0147 41.8024Q42.8785 41.9683 42.7343 42.1274Q42.5901 42.2865 42.4383 42.4383Q42.2865 42.5901 42.1274 42.7343Q41.9683 42.8785 41.8024 43.0147Q41.6364 43.1509 41.4639 43.2788Q41.2915 43.4067 41.113 43.526Q40.9344 43.6453 40.7503 43.7557Q40.5661 43.8661 40.3768 43.9673Q40.1874 44.0685 39.9933 44.1603Q39.7992 44.2521 39.6009 44.3342Q39.4025 44.4164 39.2004 44.4887Q38.9982 44.5611 38.7927 44.6234Q38.5873 44.6857 38.379 44.7379Q38.1707 44.7901 37.9602 44.8319Q37.7496 44.8738 37.5372 44.9053Q37.3248 44.9368 37.1111 44.9579Q36.8975 44.9789 36.683 44.9895Q36.4686 45 36.2539 45L27.5058 45L23.4859 48.5064Q23.3843 48.5951 23.2685 48.6641Q23.1528 48.7332 23.0265 48.7805Q22.9003 48.8278 22.7676 48.8518Q22.635 48.8758 22.5001 48.8758Q22.3653 48.8758 22.2327 48.8517Q22.1 48.8276 21.9738 48.7802Q21.8476 48.7328 21.7318 48.6637Q21.6161 48.5946 21.5146 48.5059L17.5 45L8.749 45Q8.53422 45 8.31971 44.9895Q8.10519 44.9789 7.89145 44.9579Q7.67771 44.9368 7.46525 44.9053Q7.2528 44.8738 7.04215 44.8319Q6.8315 44.79 6.62317 44.7378Q6.41483 44.6856 6.2093 44.6233Q6.00377 44.5609 5.80155 44.4886Q5.59933 44.4162 5.4009 44.334Q5.20248 44.2518 5.00832 44.16Q4.81417 44.0682 4.62475 43.9669Q4.43533 43.8657 4.25111 43.7553Q4.0669 43.6448 3.88832 43.5255Q3.70974 43.4062 3.53723 43.2783Q3.36472 43.1503 3.19869 43.0141Q3.03267 42.8778 2.87353 42.7336Q2.71439 42.5893 2.56252 42.4375Q2.41065 42.2856 2.26642 42.1265Q2.12218 41.9673 1.98593 41.8013Q1.84968 41.6353 1.72174 41.4628Q1.5938 41.2903 1.47447 41.1117Q1.35515 40.9331 1.24473 40.7489Q1.13432 40.5647 1.03307 40.3752Q0.931826 40.1858 0.839997 39.9917Q0.748169 39.7975 0.665978 39.5991Q0.583787 39.4007 0.511431 39.1984Q0.439075 38.9962 0.376729 38.7907Q0.314383 38.5852 0.262197 38.3768Q0.21001 38.1685 0.16811 37.9578Q0.126209 37.7472 0.0946947 37.5347Q0.0631805 37.3223 0.0421288 37.1086Q0.0210771 36.8948 0.0105386 36.6803Q0 36.4658 0 36.251L0 14.999Q0 14.6308 0.0180669 14.263Q0.0361339 13.8953 0.0722243 13.5288Q0.108315 13.1624 0.162341 12.7982Q0.216368 12.434 0.288202 12.0728Q0.360035 11.7117 0.449501 11.3545Q0.538968 10.9974 0.645852 10.645Q0.752736 10.2927 0.87678 9.94599Q1.00082 9.59931 1.14173 9.25913Q1.28264 8.91895 1.44006 8.5861Q1.59749 8.25325 1.77106 7.92852Q1.94463 7.60379 2.13393 7.28797Q2.32322 6.97215 2.52779 6.666Q2.73235 6.35985 2.95169 6.06411Q3.17103 5.76836 3.40462 5.48373Q3.6382 5.19911 3.88547 4.92629Q4.13274 4.65346 4.39311 4.39311Q4.65346 4.13274 4.92629 3.88547Q5.19911 3.6382 5.48373 3.40462Q5.76836 3.17103 6.06411 2.95169Q6.35985 2.73235 6.666 2.52779Q6.97215 2.32322 7.28797 2.13393Q7.60379 1.94463 7.92852 1.77106Q8.25325 1.59749 8.5861 1.44006Q8.91895 1.28264 9.25913 1.14173Q9.59931 1.00082 9.94599 0.87678Q10.2927 0.752736 10.645 0.645852Q10.9974 0.538968 11.3545 0.449501Q11.7117 0.360035 12.0728 0.288202Q12.434 0.216368 12.7982 0.162341Q13.1624 0.108315 13.5288 0.0722243Q13.8953 0.0361339 14.263 0.0180669Q14.6308 0 14.999 0L14.999 0Z" transform="translate(7.5 5.5)" id="path_1" />
    <clipPath id="clip_1">
      <use xlink:href="#path_1" />
    </clipPath>
  </defs>
  <g id="thumbs-up-like" transform="translate(0.75 0.75)">
    <path d="M0 0L60 0L60 60L0 60L0 0Z" id="Path" fill="none" fill-rule="evenodd" stroke="none" />
    <path d="M0 0L60 0L60 60L0 60L0 0Z" id="Path" fill="none" fill-rule="evenodd" stroke="none" />
    <g id="Rectangle" filter="url(#filter_1)">
      <use stroke="none" fill="#FFFFFF" xlink:href="#path_1" fill-rule="evenodd" />
      <g clip-path="url(#clip_1)">
        <use xlink:href="#path_1" fill="none" stroke="#EBEBEB" stroke-width="4" />
      </g>
    </g>
    <g id="Group-44" transform="translate(22.5 20.5)">
      <path d="M3.16311 8.96296L0.910963 8.96296C0.407407 8.96296 0 8.55556 0 8.052L0 0.910963C0 0.407407 0.407407 0 0.910963 0L3.16311 0C3.66667 0 4.07407 0.407407 4.07407 0.979407L4.07407 8.12044C4.07407 8.55556 3.66667 8.96296 3.16311 8.96296L3.16311 8.96296Z" transform="translate(0 4.0740743)" id="Path" fill="none" fill-rule="evenodd" stroke="#111111" stroke-width="1.5" stroke-linecap="round" stroke-linejoin="round" />
      <path d="M6.0174e-15 5.99142C6.0174e-15 5.99142 3.12666 1.05868 3.12666 1.05868C4.33091 -0.840289 7.36441 -0.0189812 7.36441 2.20818L7.36441 3.30609C7.36441 4.13807 8.03887 4.81253 8.87085 4.81253C8.87151 4.81253 8.87185 4.81253 8.87185 4.81253C8.87185 4.81253 9.92197 4.81253 9.92197 4.81253C10.6892 4.81253 11.4057 5.18318 11.8325 5.80202C12.2102 6.34901 12.3203 7.0299 12.1323 7.6618C12.1323 7.6618 10.8925 11.8451 10.8925 11.8451C10.6825 12.5505 10.0134 13.037 9.25294 13.037C9.25294 13.037 3.18425 13.037 3.18425 13.037C2.69137 13.037 2.21203 12.8705 1.83263 12.5668L0 11.1021" transform="translate(4.0740743 0)" id="Path" fill="none" fill-rule="evenodd" stroke="#111111" stroke-width="1.5" stroke-linecap="round" stroke-linejoin="round" />
    </g>
  </g>
</svg>