<?xml version="1.0" encoding="utf-8"?>
<svg width="15px" height="10px" viewBox="0 0 15 10" version="1.1" xmlns:xlink="http://www.w3.org/1999/xlink" xmlns="http://www.w3.org/2000/svg">
  <path d="M9.0992 2.13226L15 9.99998L0 9.99998L5.9008 2.13226Q5.93557 2.08591 5.97296 2.04164Q6.01035 1.99738 6.05025 1.95536Q6.09014 1.91333 6.1324 1.87369Q6.17466 1.83405 6.21915 1.79692Q6.26363 1.7598 6.3102 1.72531Q6.35676 1.69082 6.40524 1.65909Q6.45372 1.62736 6.50396 1.59849Q6.55419 1.56961 6.60602 1.5437Q6.65785 1.51779 6.71109 1.49492Q6.76433 1.47205 6.8188 1.45231Q6.87328 1.43256 6.9288 1.41601Q6.98433 1.39945 7.04072 1.38614Q7.09712 1.37282 7.15419 1.3628Q7.21126 1.35278 7.26881 1.34608Q7.32637 1.33937 7.38421 1.33602Q7.44206 1.33266 7.5 1.33266Q7.55794 1.33266 7.61579 1.33602Q7.67363 1.33937 7.73119 1.34608Q7.78874 1.35278 7.84581 1.3628Q7.90288 1.37282 7.95927 1.38614Q8.01567 1.39945 8.07119 1.41601Q8.12672 1.43256 8.1812 1.45231Q8.23567 1.47205 8.28891 1.49492Q8.34215 1.51779 8.39398 1.5437Q8.4458 1.56961 8.49604 1.59849Q8.54628 1.62736 8.59476 1.65909Q8.64324 1.69082 8.68981 1.72531Q8.73637 1.7598 8.78085 1.79692Q8.82534 1.83405 8.8676 1.87369Q8.90986 1.91333 8.94975 1.95536Q8.98965 1.99738 9.02704 2.04164Q9.06443 2.08591 9.0992 2.13226L9.0992 2.13226Z" id="Rectangle" fill="#015AA8" fill-rule="evenodd" stroke="none" />
</svg>