<?xml version="1.0" encoding="utf-8"?>
<svg width="22px" height="22px" viewBox="0 0 22 22" version="1.1" xmlns:xlink="http://www.w3.org/1999/xlink" xmlns="http://www.w3.org/2000/svg">
  <defs>
    <filter id="filter_1">
      <feColorMatrix in="SourceGraphic" type="matrix" values="0 0 0 0 0.06666667 0 0 0 0 0.06666667 0 0 0 0 0.06666667 0 0 0 1 0" />
    </filter>
  </defs>
  <g id="Calendar,-Schedule.2" transform="translate(0.75 0.75)" filter="url(#filter_1)">
    <g id="Group" transform="translate(2.5 2.6666667)">
      <path d="M0.416667 0L0.416667 3.33333" transform="translate(10.416667 0)" id="Path" fill="none" fill-rule="evenodd" stroke="#111111" stroke-width="1.5" stroke-linecap="round" stroke-linejoin="round" />
      <path d="M0.416667 0L0.416667 3.33333" transform="translate(3.75 0)" id="Path" fill="none" fill-rule="evenodd" stroke="#111111" stroke-width="1.5" stroke-linecap="round" stroke-linejoin="round" />
      <path d="M0 0.416667L15 0.416667" transform="translate(0 5.4166665)" id="Path" fill="none" fill-rule="evenodd" stroke="#111111" stroke-width="1.5" stroke-linecap="round" stroke-linejoin="round" />
      <path d="M13.3333 0L1.66667 0C0.745833 0 0 0.745833 0 1.66667L0 12.5C0 13.4208 0.745833 14.1667 1.66667 14.1667L13.3333 14.1667C14.2542 14.1667 15 13.4208 15 12.5L15 1.66667C15 0.745833 14.2542 0 13.3333 0Z" transform="translate(0 1.6666666)" id="Path" fill="none" fill-rule="evenodd" stroke="#111111" stroke-width="1.5" stroke-linecap="round" stroke-linejoin="round" />
    </g>
    <path d="M0 0L20 0L20 20L0 20L0 0Z" id="Path" fill="none" fill-rule="evenodd" stroke="none" />
  </g>
</svg>