<?xml version="1.0" encoding="utf-8"?>
<svg width="16px" height="16px" viewBox="0 0 16 16" version="1.1" xmlns:xlink="http://www.w3.org/1999/xlink" xmlns="http://www.w3.org/2000/svg">
  <defs>
    <path d="M3.48856 11.8886C3.15065 12.065 2.74186 12.0339 2.43448 11.8085C2.12709 11.5831 1.97459 11.2026 2.04123 10.8273L2.58056 7.73595L0.309895 5.55995C0.0323455 5.29526 -0.0693725 4.89516 0.048068 4.53005C0.165508 4.16495 0.481416 3.89918 0.861229 3.84595L4.0139 3.39528L5.43723 0.555946C5.60599 0.215427 5.95318 0 6.33323 0C6.71327 0 7.06047 0.215427 7.22923 0.555946L8.65256 3.39528L11.8052 3.84595C12.185 3.89918 12.5009 4.16495 12.6184 4.53005C12.7358 4.89516 12.6341 5.29526 12.3566 5.55995L10.0859 7.73595L10.6252 10.8279C10.6919 11.2032 10.5394 11.5838 10.232 11.8092C9.92459 12.0346 9.5158 12.0657 9.1779 11.8893L6.33323 10.4193L3.48856 11.8886Z" transform="translate(1.6667714 1.9973874)" id="path_1" />
    <clipPath id="clip_1">
      <use xlink:href="#path_1" />
    </clipPath>
  </defs>
  <g id="star-favorite-copy-4">
    <path d="M0 0L16 0L16 16L0 16L0 0Z" id="Path" fill="none" fill-rule="evenodd" stroke="none" />
    <g id="Path">
      <g clip-path="url(#clip_1)">
        <use xlink:href="#path_1" fill="none" stroke="#FF7300" stroke-width="2" stroke-linecap="round" stroke-linejoin="round" />
      </g>
    </g>
  </g>
</svg>