<?xml version="1.0" encoding="utf-8"?>
<svg width="9px" height="11px" viewBox="0 0 9 11" version="1.1" xmlns:xlink="http://www.w3.org/1999/xlink" xmlns="http://www.w3.org/2000/svg">
  <path d="M1.51993 0.928845L7.60512 4.64757Q7.65965 4.6809 7.7095 4.72091Q7.75934 4.76091 7.80368 4.80694Q7.84802 4.85297 7.88614 4.90428Q7.92425 4.95559 7.95551 5.01133Q7.98677 5.06708 8.01068 5.12635Q8.03459 5.18563 8.05074 5.24746Q8.0669 5.3093 8.07504 5.37269Q8.08319 5.43609 8.08319 5.5Q8.08319 5.56391 8.07504 5.62731Q8.0669 5.6907 8.05074 5.75254Q8.03459 5.81437 8.01068 5.87365Q7.98678 5.93292 7.95551 5.98867Q7.92425 6.04441 7.88614 6.09572Q7.84802 6.14703 7.80368 6.19306Q7.75934 6.23909 7.7095 6.2791Q7.65965 6.3191 7.60512 6.35243L1.51993 10.0712Q1.49169 10.0884 1.46237 10.1038Q1.43305 10.1191 1.40278 10.1325Q1.37251 10.1459 1.34142 10.1572Q1.31034 10.1686 1.27856 10.1778Q1.24679 10.1871 1.21448 10.1942Q1.18216 10.2014 1.14945 10.2063Q1.11673 10.2113 1.08376 10.2141Q1.05078 10.2169 1.01769 10.2176Q0.984605 10.2182 0.951549 10.2166Q0.918492 10.215 0.885613 10.2113Q0.852733 10.2075 0.820173 10.2016Q0.787614 10.1957 0.755518 10.1876Q0.723423 10.1795 0.691931 10.1694Q0.660439 10.1592 0.62969 10.147Q0.598941 10.1347 0.569068 10.1205Q0.539196 10.1062 0.510332 10.09Q0.481467 10.0739 0.453738 10.0558Q0.426008 10.0377 0.399535 10.0179Q0.373062 9.99802 0.34796 9.97645Q0.322859 9.95489 0.299241 9.93171Q0.275622 9.90853 0.253589 9.88383Q0.231556 9.85914 0.211206 9.83304Q0.190856 9.80694 0.172277 9.77956Q0.153698 9.75217 0.136973 9.72361Q0.120248 9.69506 0.105449 9.66546Q0.0906503 9.63586 0.0778429 9.60534Q0.0650356 9.57483 0.0542759 9.54353Q0.0435162 9.51224 0.0348512 9.4803Q0.0261863 9.44836 0.0196541 9.41591Q0.0131219 9.38347 0.00875113 9.35067Q0.00438037 9.31786 0.00219018 9.28484Q0 9.25182 0 9.21873L0 1.78127Q0 1.74818 0.00219018 1.71516Q0.00438037 1.68214 0.00875113 1.64933Q0.0131219 1.61653 0.0196541 1.58409Q0.0261863 1.55164 0.0348512 1.51971Q0.0435162 1.48777 0.0542759 1.45647Q0.0650356 1.42517 0.077843 1.39466Q0.0906503 1.36414 0.105449 1.33454Q0.120248 1.30494 0.136973 1.27639Q0.153698 1.24783 0.172277 1.22044Q0.190856 1.19306 0.211206 1.16696Q0.231556 1.14086 0.253589 1.11617Q0.275622 1.09148 0.299241 1.0683Q0.322859 1.04512 0.34796 1.02355Q0.373062 1.00198 0.399535 0.982123Q0.426008 0.962264 0.453738 0.944202Q0.481468 0.926139 0.510332 0.90995Q0.539196 0.893762 0.569068 0.87952Q0.598941 0.865278 0.62969 0.853044Q0.66044 0.84081 0.691931 0.830638Q0.723423 0.820465 0.755518 0.812399Q0.787614 0.804334 0.820174 0.79841Q0.852733 0.792486 0.885613 0.78873Q0.918493 0.784973 0.951549 0.783401Q0.984605 0.78183 1.01769 0.782449Q1.05078 0.783068 1.08376 0.785876Q1.11673 0.788683 1.14945 0.793667Q1.18216 0.798651 1.21448 0.805789Q1.24679 0.812927 1.27856 0.822188Q1.31034 0.831449 1.34142 0.842793Q1.37251 0.854136 1.40278 0.867512Q1.43305 0.880889 1.46237 0.896239Q1.49169 0.911589 1.51993 0.928845L1.51993 0.928845Z" id="Triangle-Copy-3" fill="#999999" fill-rule="evenodd" stroke="none" />
</svg>