<?xml version="1.0" encoding="utf-8"?>
<svg width="18px" height="18px" viewBox="0 0 18 18" version="1.1" xmlns:xlink="http://www.w3.org/1999/xlink" xmlns="http://www.w3.org/2000/svg">
  <g id="star" transform="translate(0.6248474 0.6248474)">
    <g id="1">
      <path d="M0 0L16 0L16 16L0 16L0 0Z" id="Path" fill="none" fill-rule="evenodd" stroke="none" />
      <path d="M4.40668 14.8573C3.97984 15.0777 3.46346 15.0389 3.07518 14.7572C2.6869 14.4755 2.49425 14 2.57844 13.531L3.25971 9.66769L0.391453 6.94832C0.0408582 6.61754 -0.0876299 6.11752 0.0607185 5.66125C0.209067 5.20498 0.608114 4.87284 1.08789 4.80632L5.07027 4.24311L6.86819 0.694771C7.08137 0.269221 7.51994 0 8 0C8.48006 0 8.91863 0.269221 9.13181 0.694771L10.9297 4.24311L14.9121 4.80632C15.3919 4.87284 15.7909 5.20498 15.9393 5.66125C16.0876 6.11752 15.9591 6.61754 15.6085 6.94832L12.7403 9.66769L13.4216 13.5318C13.5057 14.0008 13.3131 14.4764 12.9248 14.7581C12.5365 15.0398 12.0202 15.0786 11.5933 14.8581L8 13.0211L4.40668 14.8573Z" transform="translate(0 1)" id="Path" fill="#FF7300" fill-rule="evenodd" stroke="none" />
    </g>
  </g>
</svg>