<?xml version="1.0" encoding="utf-8"?>
<svg width="9px" height="9px" viewBox="0 0 9 9" version="1.1" xmlns:xlink="http://www.w3.org/1999/xlink" xmlns="http://www.w3.org/2000/svg">
  <g id="Group">
    <path d="M0.21967 6.21967L2.68934 3.75L0.21967 1.28033C0.0732234 1.13388 0 0.957107 0 0.75C0 0.542893 0.0732234 0.366117 0.21967 0.21967C0.366117 0.0732233 0.542893 0 0.75 0C0.957107 0 1.13388 0.0732233 1.28033 0.21967L4.28033 3.21967C4.42678 3.36612 4.5 3.54289 4.5 3.75C4.5 3.95711 4.42678 4.13388 4.28033 4.28033L1.28033 7.28033C1.13388 7.42678 0.957107 7.5 0.75 7.5C0.542893 7.5 0.366117 7.42678 0.21967 7.28033C0.149344 7.21 0.0951505 7.1289 0.0570903 7.03701C0.0190301 6.94513 0 6.84946 0 6.75C0 6.65054 0.0190301 6.55487 0.05709 6.46299C0.0951505 6.3711 0.149344 6.29 0.21967 6.21967L0.21967 6.21967Z" transform="translate(2.25 0.75)" id="Vector" fill="#015AA8" fill-rule="evenodd" stroke="none" />
    <path d="M0 0L9 0L9 9L0 9L0 0Z" id="Path" fill="none" fill-rule="evenodd" stroke="none" />
  </g>
</svg>