<?xml version="1.0" encoding="utf-8"?>
<svg width="14px" height="11px" viewBox="0 0 14 11" version="1.1" xmlns:xlink="http://www.w3.org/1999/xlink" xmlns="http://www.w3.org/2000/svg">
  <g id="Eye,-Show,-Visible" transform="translate(0.75 0.75)">
    <g id="Group-22">
      <path d="M0.0785 4.978C-0.0261667 4.784 -0.0261667 4.54867 0.0785 4.35467C1.33983 2.022 3.66983 0 5.99983 0C8.32983 0 10.6598 2.022 11.9212 4.35533C12.0258 4.54933 12.0258 4.78467 11.9212 4.97867C10.6598 7.31133 8.32983 9.33333 5.99983 9.33333C3.66983 9.33333 1.33983 7.31133 0.0785 4.978Z" id="Path" fill="none" fill-rule="evenodd" stroke="#999999" stroke-width="1.5" stroke-linecap="round" stroke-linejoin="round" />
      <path d="M3.41421 0.585785C4.19526 1.36683 4.19526 2.63317 3.41421 3.41421C2.63317 4.19526 1.36683 4.19526 0.585785 3.41421C-0.195262 2.63317 -0.195262 1.36683 0.585785 0.585785C1.36683 -0.195262 2.63317 -0.195262 3.41421 0.585785" transform="translate(3.999817 2.6666565)" id="Path" fill="#999999" fill-rule="evenodd" stroke="#999999" stroke-width="1.5" stroke-linecap="round" stroke-linejoin="round" />
    </g>
  </g>
</svg>