<?xml version="1.0" encoding="utf-8"?>
<svg width="130px" height="30px" viewBox="0 0 130 30" version="1.1" xmlns:xlink="http://www.w3.org/1999/xlink" xmlns="http://www.w3.org/2000/svg">
  <g id="Logo">
    <path d="M21.3 23.4L21.3 13.77L23.55 13.77L23.55 9.27L21.3 9.27L21.3 0.6L15.66 0.6L15.66 23.4L21.3 23.4ZM0.6 22.5C3.06 22.5 5.235 21.8 7.125 20.4C9.015 19 10.485 17.005 11.535 14.415C12.585 11.825 13.11 8.8 13.11 5.34L13.11 0.84L0.3 0.84L0.3 5.34L7.47 5.34C7.47 8.44 7.07 10.935 6.27 12.825C5.47 14.715 4.5 16.05 3.36 16.83C2.22 17.61 1.1 18 0 18L0.6 22.5ZM38.16 22.5L39.36 17.85C38.48 17.75 37.7 17.27 37.02 16.41C36.34 15.55 35.795 14.32 35.385 12.72C34.975 11.12 34.75 9.2 34.71 6.96L34.71 6.96L38.76 6.96L38.76 2.4L34.86 2.4L34.86 0L29.25 0L29.25 2.4L25.35 2.4L25.35 6.96L29.4 6.96C29.36 10.48 28.965 13.14 28.215 14.94C27.465 16.74 26.31 17.71 24.75 17.85L24.75 17.85L25.95 22.5C27.03 22.42 28.11 22.03 29.19 21.33C30.27 20.63 31.23 19.6 32.07 18.24C32.89 19.6 33.84 20.63 34.92 21.33C36 22.03 37.08 22.42 38.16 22.5L38.16 22.5ZM46.35 23.4L46.35 0.6L40.71 0.6L40.71 23.4L46.35 23.4Z" transform="translate(1.5 0.5999985)" id="가치" fill="#015AA8" stroke="none" />
    <path d="M0 0L130 0L130 30L0 30L0 0Z" id="Rectangle" fill="none" fill-rule="evenodd" stroke="none" />
    <path d="M13.11 12.3L14.31 7.8C13.09 7.8 12.06 7.355 11.22 6.465C10.38 5.575 9.96 4.25 9.96 2.49L9.96 2.49L9.96 0L4.35 0L4.35 2.49C4.35 4.25 3.93 5.575 3.09 6.465C2.25 7.355 1.22 7.8 0 7.8L0 7.8L1.2 12.3C2.32 12.3 3.395 12.085 4.425 11.655C5.455 11.225 6.37 10.61 7.17 9.81C7.95 10.61 8.855 11.225 9.885 11.655C10.915 12.085 11.99 12.3 13.11 12.3L13.11 12.3ZM21.6 12.3L21.6 8.25L23.85 8.25L23.85 4.05L21.6 4.05L21.6 0L15.96 0L15.96 12.3L21.6 12.3ZM21.6 22.8L21.6 13.35L15.99 13.35L15.99 14.46L6.84 14.46L6.84 13.35L1.2 13.35L1.2 22.8L21.6 22.8ZM15.99 19.2L6.84 19.2L6.84 18.06L15.99 18.06L15.99 19.2ZM46.65 22.8L46.65 0L41.01 0L41.01 22.8L46.65 22.8ZM38.46 21.9L39.66 17.1C38.78 17 37.985 16.46 37.275 15.48C36.565 14.5 36.01 13.16 35.61 11.46C35.21 9.76 35.01 7.83 35.01 5.67L35.01 5.67L35.01 0.3L29.7 0.3L29.7 5.67C29.7 9.11 29.32 11.84 28.56 13.86C27.8 15.88 26.63 16.96 25.05 17.1L25.05 17.1L26.25 21.9C27.33 21.82 28.41 21.425 29.49 20.715C30.57 20.005 31.53 18.97 32.37 17.61C33.19 18.97 34.14 20.005 35.22 20.715C36.3 21.425 37.38 21.82 38.46 21.9L38.46 21.9ZM71.25 22.8L71.25 13.17L73.5 13.17L73.5 8.67L71.25 8.67L71.25 0L65.61 0L65.61 22.8L71.25 22.8ZM63.6 21.9L63.6 17.4L55.89 17.4L55.89 4.8L63 4.8L63 0.3L50.25 0.3L50.25 21.9L63.6 21.9Z" transform="translate(52.199997 5.199997)" id="삽시다" fill="#FF7300" stroke="none" />
  </g>
</svg>