<?xml version="1.0" encoding="utf-8"?>
<svg width="154px" height="35px" viewBox="0 0 154 35" version="1.1" xmlns:xlink="http://www.w3.org/1999/xlink" xmlns="http://www.w3.org/2000/svg">
  <g id="그룹-18">
    <path d="M26.8975 16.4139C25.4781 15.4419 23.7158 15.0898 22.0253 15.4404C20.3347 15.791 18.865 16.8135 17.9619 18.2672C16.6232 20.3365 14.1748 21.4328 11.7157 21.064C9.25654 20.6952 7.24849 18.9307 6.5927 16.5622L6.5927 16.5622C6.58776 16.5378 6.58183 16.5193 6.5759 16.4969C6.56997 16.4744 6.56207 16.4442 6.55515 16.4149C6.31772 15.6157 6.20934 14.7846 6.23401 13.9521C6.23401 8.39239 12.0165 2.19869 20.3413 2.19869C26.8332 2.24887 32.6394 6.19731 35 12.1671C34.9802 12.1027 34.9605 12.0423 34.9377 11.972C32.0888 3.77788 23.6565 -1.18254 14.9998 0.243349C6.34314 1.66923 -0.000725808 9.06351 0 17.7268C0 26.4741 6.39211 33.9631 15.2595 33.9631C21.4714 34.1617 27.1139 30.4107 29.263 24.654C30.5325 21.7 29.5488 18.272 26.8985 16.4139" id="패스_107" fill="#002A56" stroke="none" />
    <path d="M29.0605 10.2231C26.7956 4.12503 20.864 0.0451326 14.1975 0C5.82153 0 0.00357426 6.13695 0.00357426 11.6512C-0.0217164 12.4765 0.0873332 13.3005 0.326683 14.0927C0.218266 13.6839 0.162496 13.2636 0.160655 12.8415C0.160655 7.09999 6.07106 3.11827 12.1505 3.11827C20.3758 3.12094 27.0423 9.60671 27.0423 17.6064C27.0483 23.6693 23.5214 29.212 17.9396 31.9118L17.9396 31.9118C25.0904 29.3923 29.8532 22.7872 29.8529 15.3902C29.8575 13.6374 29.5893 11.894 29.0575 10.2192" transform="translate(6.1764708 3.0882354)" id="패스_108" fill="#DC0021" stroke="none" />
    <path d="M5.14706 0L5.14706 5.14706L4.32171 5.14706L4.32171 1.00749L2.97579 5.14706L2.17316 5.14706L0.832919 1.00749L0.832919 5.14706L0 5.14706L0 0.00189022L1.27209 0.00189022L2.57353 4.00537L3.87496 0.00189022L5.14706 0Z" transform="translate(45.294117 25.735294)" id="패스_109" fill="#474645" stroke="none" />
    <path d="M1.02938 0.512661C1.0305 0.646595 0.975251 0.774887 0.877014 0.866445C0.781893 0.96405 0.650873 1.01881 0.514243 1.01807C0.233701 1.01569 0.00589153 0.791787 1.59909e-05 0.512661C-0.00107435 0.376809 0.053635 0.246406 0.151473 0.151656C0.246099 0.0533328 0.377445 -0.00156375 0.514243 3.3924e-05C0.650789 -0.000293138 0.781653 0.0544018 0.877014 0.151656C0.975818 0.245822 1.03098 0.376528 1.02938 0.512661M0.115196 1.61734L0.93143 1.61734L0.93143 5.14706L0.115196 5.14706L0.115196 1.61734Z" transform="translate(51.47059 25.735294)" id="패스_110" fill="#474645" stroke="none" />
    <path d="M0.788509 2.09362L0.788509 4.11765L0 4.11765L0 0.0994121L0.759239 0.0994121L0.759239 0.633943C0.854963 0.439736 0.994869 0.279726 1.16369 0.171368C1.33646 0.0570329 1.53241 -0.00186828 1.73135 0.000729397C2.10514 -0.0128636 2.46529 0.16409 2.71676 0.484891C2.97293 0.85105 3.10451 1.31327 3.08663 1.78421L3.08663 4.11765L2.299 4.11765L2.299 2.01344C2.31573 1.68335 2.2544 1.35423 2.12161 1.06157C1.99148 0.857061 1.78184 0.741363 1.56283 0.753185C1.42706 0.755808 1.29547 0.807963 1.18675 0.902237C1.06147 1.00224 0.963087 1.1412 0.902927 1.30314C0.817786 1.55417 0.779106 1.82313 0.789396 2.0926" transform="translate(54.558823 26.764706)" id="패스_111" fill="#474645" stroke="none" />
    <path d="M1.02849 0.51263C1.02911 0.646099 0.97464 0.773978 0.877806 0.866417C0.782301 0.963585 0.65136 1.01826 0.514713 1.01804C0.377729 1.01997 0.24614 0.965016 0.15162 0.866417C0.0535373 0.774765 -0.00144302 0.646451 2.88101e-05 0.51263C0.00200749 0.230331 0.231691 0.00196731 0.515621 0C0.652185 0.000183564 0.782974 0.0547991 0.878714 0.151623C0.976039 0.246705 1.03041 0.376971 1.0294 0.51263M0.116219 1.61731L0.927732 1.61731L0.927732 5.14706L0.116219 5.14706L0.116219 1.61731Z" transform="translate(58.67647 25.735294)" id="패스_112" fill="#474645" stroke="none" />
    <path d="M0 3.28179L0.525357 2.7127C0.650989 2.91385 0.81494 3.08453 1.00654 3.21366C1.17046 3.32393 1.36064 3.38166 1.55446 3.37998C1.72307 3.38668 1.89007 3.34295 2.03658 3.25374C2.14991 3.19339 2.22212 3.07061 2.22371 2.93557C2.22529 2.80053 2.15598 2.67586 2.0441 2.61251C1.89902 2.53041 1.7482 2.4604 1.59299 2.40311C1.39093 2.33999 1.18793 2.26084 0.977409 2.17167C0.737278 2.09819 0.523028 1.95034 0.361829 1.74686C0.22802 1.58601 0.155301 1.37773 0.157889 1.16275C0.164869 0.829736 0.324679 0.521573 0.585505 0.338175C0.873807 0.109221 1.22611 -0.00938504 1.58547 0.00153283C1.9439 -0.0144017 2.29747 0.0942498 2.59295 0.311123C2.72544 0.421438 2.8333 0.561743 2.90873 0.721907L2.39653 1.25092C2.33127 1.13816 2.25012 1.03678 2.15594 0.950343C1.98504 0.800143 1.76932 0.720171 1.54788 0.724913C1.41471 0.721204 1.28362 0.760684 1.17195 0.838129C1.08021 0.894495 1.02097 0.996005 1.01406 1.10864C1.01941 1.23132 1.08924 1.34028 1.19451 1.39018C1.35663 1.49309 1.53161 1.57101 1.71422 1.62162C1.79599 1.65469 1.89373 1.68675 1.99617 1.72181C2.29589 1.81719 2.57239 1.98134 2.80629 2.20273C2.98636 2.39089 3.08795 2.64829 3.08824 2.91709C3.08022 3.25783 2.91399 3.57207 2.64464 3.75569C2.3194 4.00497 1.92563 4.13186 1.52532 4.11638C1.16816 4.12596 0.815905 4.02617 0.51032 3.82883C0.302313 3.69556 0.127314 3.51106 2.67112e-14 3.29081" transform="translate(60.735294 26.764706)" id="패스_113" fill="#474645" stroke="none" />
    <path d="M1.33674 0L1.33674 1.25788L2.05882 1.25788L2.05882 1.96489L1.33674 1.96489L1.33674 3.94369C1.33674 4.13461 1.36999 4.27084 1.45183 4.33349C1.54813 4.40898 1.66357 4.44404 1.7792 4.43292L2.05882 4.43292L2.05882 5.14191L1.60273 5.14191C1.31918 5.17199 1.03701 5.06932 0.818414 4.85653C0.642028 4.63221 0.553147 4.33272 0.57289 4.02921L0.57289 1.96489L0 1.96489L0 1.25788L0.57289 1.25788L0.57289 0L1.33674 0Z" transform="translate(63.82353 25.735294)" id="패스_114" fill="#474645" stroke="none" />
    <path d="M0 4.11765L0 0.065531L0.798281 0.065531L0.798281 0.670912C0.910802 0.479247 1.06421 0.320247 1.24536 0.207547C1.47507 0.0669855 1.7348 -0.00455223 1.99807 0.000224462L2.05882 0.000224462L2.05882 0.820185L1.9639 0.820185C1.65339 0.803512 1.35071 0.929866 1.12955 1.16849C0.914424 1.46946 0.812575 1.84875 0.844792 2.22894L0.844792 4.11765L0 4.11765Z" transform="translate(66.911766 26.764706)" id="패스_115" fill="#474645" stroke="none" />
    <path d="M1.60015 3.56189L0 0L0.958004 0L2.06716 2.53134L3.16694 0L4.11765 0L1.85034 5.14706L0.90067 5.14706L1.60015 3.56189Z" transform="translate(69.6 26.794117)" id="패스_116" fill="#474645" stroke="none" />
    <path d="M2.05882 4.11705C1.51336 4.13049 0.98669 3.91539 0.603786 3.52278C0.207227 3.14358 -0.0119399 2.6126 0.000502365 2.06118C-0.0101284 1.50864 0.208634 0.976817 0.603786 0.59456C0.989061 0.205552 1.51413 -0.00890022 2.05882 0.000283262C2.60524 -0.00714863 3.13182 0.206897 3.52082 0.59456C3.91178 0.979145 4.12765 1.51006 4.11714 2.06118C4.12953 2.61118 3.91325 3.14127 3.52082 3.52278C3.13411 3.91395 2.606 4.12862 2.05882 4.11705M2.05882 3.37822C2.37626 3.38261 2.67923 3.24433 2.88573 3.00078C3.11595 2.7443 3.23791 2.40715 3.22563 2.06118C3.2334 1.71443 3.11211 1.37735 2.88573 1.11656C2.67679 0.876184 2.37551 0.738297 2.05882 0.73811C1.74443 0.737055 1.44541 0.875403 1.24086 1.11656C1.0042 1.37172 0.878259 1.71178 0.891017 2.06118C0.873719 2.40981 1.00041 2.75005 1.24086 3.00078C1.44293 3.24512 1.74367 3.3839 2.05882 3.37822" transform="translate(75.14706 26.764706)" id="패스_117" fill="#474645" stroke="none" />
    <path d="M0.590983 1.19528C0.571857 0.863958 0.67091 0.538653 0.86287 0.302361C1.09527 0.0818496 1.38734 -0.0243887 1.68115 0.00472253L2.05882 0.00472253L2.05882 0.760512L1.82803 0.760512C1.70971 0.752025 1.59221 0.789231 1.49232 0.866811C1.40071 0.974538 1.35687 1.12894 1.3743 1.28244L1.3743 2.01485L2.05882 2.01485L2.05882 2.77489L1.3743 2.77489L1.3743 6.17647L0.587486 6.17647L0.587486 2.77489L0 2.77489L0 2.0191L0.587486 2.0191L0.590983 1.19528Z" transform="translate(80.29412 24.705883)" id="패스_118" fill="#474645" stroke="none" />
    <path d="M0 4.05476L0.617621 3.49804C0.749357 3.77797 0.968661 4.01864 1.24965 4.19166C1.4901 4.3444 1.77739 4.42845 2.07315 4.4326C2.3442 4.44039 2.61044 4.36781 2.82973 4.22634C3.02733 4.10696 3.14351 3.90713 3.13854 3.69518C3.13624 3.50024 3.01911 3.32057 2.82973 3.22151C2.61056 3.10083 2.37977 2.9976 2.14006 2.91303C1.89301 2.83454 1.62537 2.74693 1.36597 2.6511C1.00554 2.55473 0.686497 2.36381 0.450863 2.10351C0.272282 1.90394 0.173768 1.65732 0.170875 1.40259C0.17351 1.01372 0.377738 0.64754 0.724675 0.409621C1.10642 0.132704 1.58839 -0.012223 2.08138 0.00166495C2.57624 -0.0168924 3.06259 0.120161 3.45456 0.38863C3.61644 0.498221 3.74634 0.640618 3.83336 0.803888L3.27648 1.32775C3.20322 1.2187 3.11078 1.12073 3.00267 1.03753C2.73921 0.822197 2.39229 0.705177 2.03403 0.710797C1.81211 0.70592 1.59471 0.766956 1.41641 0.884201C1.24321 0.989729 1.14118 1.16518 1.14466 1.35148C1.14466 1.64901 1.50494 1.91276 2.2399 2.1318C2.37063 2.17652 2.50342 2.22306 2.65165 2.26413C3.06056 2.39022 3.43632 2.58863 3.75616 2.84732C3.99372 3.07533 4.12311 3.37569 4.11747 3.68605C4.11585 4.08615 3.90572 4.46313 3.54823 4.70731C3.14072 5.00832 2.62165 5.16444 2.09168 5.14538C1.61205 5.16253 1.13817 5.04777 0.734968 4.81683C0.412384 4.631 0.158297 4.36542 0.00411747 4.05294" transform="translate(85.44118 25.735294)" id="패스_119" fill="#474645" stroke="none" />
    <path d="M5.14706 0L5.14706 5.14706L4.32202 5.14706L4.32202 1.00749L2.9747 5.14706L2.17331 5.14706L0.831666 1.00749L0.831666 5.14706L0 5.14706L0 0.00189022L1.27163 0.00189022L2.57353 4.00537L3.87449 0.00189022L5.14706 0Z" transform="translate(90.4 25.735294)" id="패스_120" fill="#474645" stroke="none" />
    <path d="M3.08824 5.14706L0 5.14706L0 0L3.07185 0L3.07185 0.718546L0.789954 0.718546L0.789954 2.20669L3.01666 2.20669L3.01666 2.90255L0.789954 2.90255L0.789954 4.42851L3.08565 4.42851L3.08824 5.14706Z" transform="translate(96.76471 25.735294)" id="패스_121" fill="#474645" stroke="none" />
    <path d="M0.0047005 3.28182L0.532097 2.71272C0.65709 2.91377 0.820462 3.08448 1.01155 3.21368C1.17591 3.32383 1.36642 3.38154 1.56057 3.38001C1.72894 3.38685 1.89573 3.3431 2.0419 3.25376C2.15575 3.19374 2.22834 3.07066 2.22973 2.93529C2.23111 2.79993 2.16107 2.67519 2.04848 2.61252C1.90344 2.53024 1.75256 2.46022 1.59723 2.40312C1.39699 2.34 1.19299 2.26084 0.981464 2.17167C0.741744 2.09768 0.52786 1.94989 0.366639 1.74685C0.232392 1.58625 0.159591 1.37779 0.162637 1.16272C0.169135 0.829565 0.32911 0.521171 0.590383 0.338131C0.879026 0.108956 1.23181 -0.00966467 1.59159 0.00148061C1.9495 -0.0141619 2.30251 0.0944855 2.5975 0.311079C2.73082 0.420796 2.83912 0.561231 2.91431 0.721872L2.4029 1.25089C2.33735 1.13863 2.25657 1.03734 2.16317 0.950313C1.99115 0.800747 1.77502 0.720888 1.55305 0.724878C1.41983 0.721169 1.2887 0.76065 1.17701 0.838096C1.08452 0.893979 1.0245 0.995577 1.01719 1.10862C1.02339 1.231 1.09297 1.33953 1.19769 1.39016C1.35995 1.49288 1.53495 1.57079 1.71756 1.62161C1.79935 1.65467 1.899 1.68674 1.99959 1.7218C2.29977 1.81696 2.57671 1.98113 2.8109 2.20273C2.98929 2.39173 3.08918 2.64903 3.08823 2.91711C3.08013 3.25732 2.91472 3.57126 2.64638 3.75573C2.32091 4.00474 1.92712 4.1316 1.52672 4.11643C1.16889 4.12572 0.816003 4.02596 0.509534 3.82887C0.301942 3.69529 0.127259 3.51083 0 3.29083" transform="translate(100.882355 26.764706)" id="패스_122" fill="#474645" stroke="none" />
    <path d="M2.14283 1.4887L3.15626 1.4887C3.16421 1.25944 3.03969 1.04333 2.82864 0.920102C2.53908 0.77851 2.21284 0.712054 1.88511 0.727898L1.85999 0.727898C1.43623 0.737961 1.01847 0.82223 0.629244 0.976161L0.383531 0.275419C0.85447 0.0969146 1.35912 0.00507561 1.86873 0.00513257L1.88511 0.00513257C2.46487 -0.0283654 3.0418 0.102714 3.53739 0.38053C3.93716 0.670468 4.15299 1.12397 4.1129 1.58981L4.1129 4.01938L3.18793 4.01938L3.18793 3.58793C3.00012 3.75926 2.77289 3.88992 2.52287 3.97033C2.26424 4.06462 1.9887 4.11384 1.71038 4.11549C1.26286 4.13664 0.823186 4.00182 0.479632 3.73809C0.170864 3.52161 -0.00713221 3.18339 0.000219106 2.82712C-0.00175366 2.42437 0.2233 2.04925 0.59539 1.83507C1.06112 1.58166 1.59889 1.46173 2.13956 1.49071M1.87746 3.41174C2.13563 3.40905 2.38955 3.35112 2.61897 3.24256C2.83101 3.1563 3.015 3.02109 3.15299 2.85015L3.15299 2.18744L2.28699 2.18744C1.93651 2.16347 1.58528 2.22386 1.2681 2.36263C1.09252 2.46296 0.983763 2.63752 0.978702 2.82712C0.973296 2.99574 1.06658 3.15417 1.22332 3.24256C1.4148 3.36483 1.64561 3.42443 1.87856 3.41174" transform="translate(106.02941 26.764706)" id="패스_123" fill="#474645" stroke="none" />
    <path d="M0.788738 2.09362L0.788738 4.11765L0 4.11765L0 0.0994121L0.759459 0.0994121L0.759459 0.633943C0.854602 0.439547 0.99432 0.279447 1.16314 0.171368C1.33619 0.0567626 1.53254 -0.00215136 1.73185 0.000729397C2.10575 -0.0128636 2.46601 0.16409 2.71755 0.484891C2.97319 0.851381 3.10444 1.31346 3.08663 1.78421L3.08663 4.11765L2.2979 4.11765L2.2979 2.01344C2.31361 1.68345 2.25231 1.35464 2.12045 1.06157C1.8948 0.725377 1.47999 0.656331 1.18178 0.905321C1.05787 1.00709 0.959814 1.14554 0.897866 1.30622C0.81456 1.55778 0.77681 1.8265 0.786963 2.09568" transform="translate(111.17647 26.764706)" id="패스_124" fill="#474645" stroke="none" />
    <path d="M1.97065 1.88547C2.44607 1.88711 2.89686 2.10125 3.20397 2.47134L3.20397 0L4.11765 0L4.11765 6.07878L3.23686 6.07878L3.23686 5.55474C2.93327 5.95167 2.46528 6.18118 1.97168 6.1752C1.4251 6.19613 0.899836 5.95773 0.549261 5.52959C0.185734 5.11874 -0.0105334 4.58202 0.000436237 4.02876C-0.00744173 3.47132 0.188168 2.9308 0.549261 2.51221C0.905106 2.09244 1.42784 1.85903 1.97168 1.87708M3.1978 4.28763C3.21411 4.11335 3.21411 3.93788 3.1978 3.7636C3.16995 3.47572 3.05089 3.20494 2.85864 2.99223C2.65189 2.76919 2.36307 2.64453 2.06212 2.64846C1.73909 2.63475 1.42971 2.78214 1.23272 3.04358C1.01883 3.32481 0.909587 3.67423 0.924393 4.02981C0.905329 4.38435 1.0151 4.73362 1.23272 5.0108C1.42715 5.27535 1.73842 5.42324 2.06212 5.40487C2.36366 5.41306 2.654 5.28814 2.85864 5.06215C3.05378 4.85098 3.17329 4.57881 3.1978 4.28973" transform="translate(115.29412 24.735294)" id="패스_125" fill="#474645" stroke="none" />
    <path d="M0 4.05471L0.617928 3.49799C0.750752 3.77764 0.970381 4.01816 1.2513 4.19161C1.49169 4.34466 1.77924 4.42875 2.07521 4.43255C2.34743 4.44089 2.61498 4.36828 2.83526 4.22629C3.03355 4.10737 3.14996 3.90724 3.14422 3.69513C3.14274 3.49999 3.02533 3.31999 2.83526 3.22146C2.61563 3.10077 2.38438 2.99755 2.14421 2.91298C1.89395 2.83449 1.62927 2.74688 1.36768 2.65105C1.00829 2.55454 0.690451 2.36359 0.456237 2.10346C0.275565 1.90482 0.176426 1.65767 0.17508 1.40255C0.176229 1.01358 0.380417 0.646969 0.728125 0.40958C1.10974 0.132147 1.59218 -0.012847 2.08551 0.0016254C2.58058 -0.0166951 3.06708 0.120333 3.45937 0.38859C3.62131 0.49867 3.75183 0.640905 3.84042 0.803846L3.27811 1.32771C3.20594 1.21926 3.11527 1.12136 3.00931 1.03748C2.74407 0.82217 2.39573 0.705227 2.03607 0.710755C1.81394 0.705239 1.59621 0.766339 1.41815 0.884159C1.24486 0.989687 1.14277 1.16514 1.14626 1.35144C1.14626 1.64896 1.50774 1.91272 2.24102 2.13175C2.37387 2.17647 2.50364 2.22302 2.65297 2.26409C3.06106 2.39037 3.43596 2.58877 3.75494 2.84727C3.99336 3.07493 4.12325 3.37545 4.11746 3.686C4.1162 4.08535 3.90769 4.46198 3.55206 4.70725C3.14226 5.00752 2.622 5.16347 2.09066 5.14533C1.61075 5.16278 1.13654 5.04799 0.733275 4.81677C0.41079 4.63093 0.156913 4.36533 0.00308964 4.05288" transform="translate(122.5 25.735294)" id="패스_126" fill="#474645" stroke="none" />
    <path d="M1.3387 0L1.3387 1.25788L2.05882 1.25788L2.05882 1.96489L1.3387 1.96489L1.3387 3.94369C1.3387 4.13461 1.37027 4.27084 1.45389 4.33349C1.5495 4.41011 1.66512 4.44529 1.78067 4.43292L2.05882 4.43292L2.05882 5.14191L1.60406 5.14191C1.32027 5.17199 1.03787 5.06932 0.819093 4.85653C0.642698 4.63206 0.553497 4.33278 0.572512 4.02921L0.572512 1.96489L0 1.96489L0 1.25788L0.572512 1.25788L0.572512 0L1.3387 0Z" transform="translate(126.617645 25.735294)" id="패스_127" fill="#474645" stroke="none" />
    <path d="M2.14182 1.48867L3.15746 1.48867C3.16541 1.25941 3.04076 1.04329 2.82948 0.920055C2.53864 0.778865 2.21147 0.712443 1.88272 0.727846L1.85757 0.727846C1.43341 0.738422 1.0153 0.822671 0.625471 0.976116L0.379488 0.275352C0.851675 0.0967356 1.35761 0.00489479 1.8685 0.00505786L1.88272 0.00505786C2.46274 -0.0281674 3.03988 0.102904 3.53572 0.380467C3.93634 0.670199 4.15283 1.12375 4.11296 1.58978L4.11296 4.01943L3.18588 4.01943L3.18588 3.58796C3.00052 3.75797 2.77657 3.88853 2.52993 3.97038C2.26996 4.06494 1.99298 4.11417 1.71326 4.11554C1.26629 4.13643 0.827259 4.00158 0.484441 3.73813C0.174247 3.52207 -0.00549237 3.18398 0.000128005 2.82713C-0.00182209 2.42413 0.223972 2.04886 0.597047 1.83505C1.06277 1.58137 1.60087 1.46141 2.14182 1.49068M1.88053 3.41177C2.13995 3.40852 2.39507 3.35063 2.62613 3.24259C2.83695 3.15549 3.01987 3.02039 3.15746 2.85016L3.15746 2.18744L2.29269 2.18744C1.94076 2.1634 1.58807 2.22378 1.2694 2.36263C1.09519 2.46407 0.987433 2.63816 0.981873 2.82713C0.976897 2.99516 1.06917 3.15312 1.22458 3.24259C1.41644 3.36451 1.64738 3.42407 1.88053 3.41177" transform="translate(129.70589 26.764706)" id="패스_128" fill="#474645" stroke="none" />
    <path d="M0 4.11765L0 0.0656064L0.797639 0.0656064L0.797639 0.670977C0.909965 0.478859 1.06392 0.319742 1.24595 0.20762C1.47638 0.0663206 1.73732 -0.00526086 2.00171 0.000301108L2.05882 0.000301108L2.05882 0.820246L1.96935 0.820246C1.65801 0.803831 1.35459 0.930144 1.13269 1.16854C0.917394 1.46975 0.815314 1.84884 0.847135 2.22898L0.847135 4.11765L0 4.11765Z" transform="translate(134.85294 26.764706)" id="패스_129" fill="#474645" stroke="none" />
    <path d="M1.33734 0L1.33734 1.25788L2.05882 1.25788L2.05882 1.96488L1.33734 1.96488L1.33734 3.94368C1.33734 4.13459 1.37141 4.27082 1.45234 4.33347C1.54902 4.4094 1.66503 4.44449 1.78113 4.43291L2.05882 4.43291L2.05882 5.14189L1.60225 5.14189C1.31971 5.17205 1.03854 5.06932 0.821144 4.85651C0.643964 4.63279 0.554744 4.33295 0.574971 4.02919L0.574971 1.96488L0 1.96488L0 1.25788L0.574971 1.25788L0.574971 0L1.33734 0Z" transform="translate(137.91176 25.735294)" id="패스_130" fill="#474645" stroke="none" />
    <path d="M2.30002 2.02034L2.30002 0L3.08824 0L3.08824 4.01705L2.32753 4.01705L2.32753 3.48295C2.23834 3.67212 2.10522 3.82866 1.94319 3.93488C1.76427 4.05334 1.56171 4.11566 1.35558 4.11566C0.982825 4.13875 0.621987 3.95997 0.379182 3.63188C0.113284 3.27178 -0.0216197 2.80641 0.00282547 2.33361L0.00282547 0.00205423L0.790155 0.00205423L0.790155 2.10456C0.766112 2.43358 0.83027 2.76317 0.973895 3.04848C1.09454 3.26307 1.30851 3.38191 1.52867 3.35662C1.66325 3.35281 1.79362 3.30157 1.90236 3.20974C2.02649 3.10652 2.12455 2.96681 2.1864 2.80506C2.2695 2.55461 2.30843 2.28744 2.30091 2.01931" transform="translate(141 26.764706)" id="패스_131" fill="#474645" stroke="none" />
    <path d="M2.14755 3.81966C1.66913 3.82835 1.21337 3.63515 0.913916 3.29672L0.913916 5.14706L0 5.14706L0 0.0863572L0.882047 0.0863572L0.882047 0.552438C1.18731 0.201719 1.65379 -0.00186309 2.14652 0.000598357C2.69167 -0.0126384 3.21516 0.194305 3.57548 0.565488C3.93161 0.940055 4.12431 1.41982 4.11725 1.91432C4.12763 2.40513 3.93427 2.88156 3.57548 3.24918C3.22043 3.62789 2.69442 3.83926 2.14652 3.82339M0.920084 2.1455C0.940976 2.40345 1.06103 2.64658 1.25933 2.8325C1.46257 3.03537 1.75398 3.14686 2.05605 3.13732C2.38048 3.1486 2.69122 3.01828 2.89184 2.78683C3.10408 2.53768 3.21322 2.22892 3.20025 1.91432C3.20903 1.59882 3.10039 1.28983 2.89184 1.03716C2.68875 0.808459 2.37978 0.678549 2.05605 0.685737C1.75458 0.680142 1.46478 0.791356 1.25933 0.991485C1.06387 1.17877 0.944272 1.42064 0.920084 1.67756C0.903773 1.83256 0.903773 1.98863 0.920084 2.14364" transform="translate(145.11765 26.794117)" id="패스_132" fill="#474645" stroke="none" />
    <path d="M0 3.2818L0.526596 2.7127C0.650814 2.91496 0.814815 3.08591 1.0072 3.21367C1.16973 3.32428 1.35888 3.38206 1.55163 3.37999C1.71976 3.38694 1.88632 3.34318 2.03223 3.25374C2.14619 3.1943 2.21922 3.07158 2.2212 2.9362C2.22319 2.80083 2.15378 2.67573 2.04161 2.61251C1.89656 2.53003 1.74558 2.46001 1.59011 2.40311C1.38642 2.33998 1.18742 2.26083 0.974343 2.17166C0.734716 2.09768 0.520851 1.94991 0.359512 1.74684C0.226644 1.58549 0.154129 1.37753 0.15582 1.16272C0.163098 0.82904 0.323905 0.520604 0.585732 0.338129C0.873307 0.108388 1.22545 -0.0103089 1.58448 0.00148081C1.94215 -0.0141622 2.29491 0.0944749 2.5898 0.311077C2.72264 0.42083 2.83047 0.561274 2.90519 0.721868L2.39549 1.25089C2.32909 1.1385 2.24748 1.03721 2.15332 0.950308C1.98238 0.800575 1.76709 0.720662 1.54599 0.724874C1.41299 0.721166 1.28206 0.760646 1.17053 0.838092C1.07902 0.894435 1.02013 0.996058 1.01377 1.10861C1.01872 1.23114 1.08814 1.34015 1.19305 1.39016C1.3549 1.49324 1.52969 1.57117 1.71214 1.6216C1.79474 1.65466 1.89237 1.68673 1.99374 1.72179C2.2942 1.81721 2.57159 1.98132 2.80663 2.20272C2.98648 2.39088 3.08795 2.64829 3.08824 2.9171C3.07978 3.25745 2.91429 3.57135 2.64612 3.75571C2.32051 4.00487 1.92667 4.13172 1.52628 4.11641C1.16988 4.12574 0.818418 4.02596 0.513454 3.82885C0.3057 3.69558 0.130914 3.51108 0.00375469 3.29082" transform="translate(150.26471 26.764706)" id="패스_133" fill="#474645" stroke="none" />
    <path d="M6.21442 8.60651L6.21442 7.71221L0 7.71221L0 6.11505L14.4118 6.11505L14.4118 7.71221L8.17707 7.71221L8.17707 8.60651C8.35753 8.65678 8.5542 8.70899 8.73566 8.77666C9.19052 8.95541 9.61066 9.20575 9.97855 9.51724C10.3323 9.83237 10.625 10.2045 10.8433 10.6165C11.0432 11.0423 11.1468 11.5035 11.1474 11.97C11.1493 12.4325 11.0455 12.8897 10.8433 13.31C10.6343 13.7325 10.3405 14.1119 9.97855 14.4267C9.2185 15.0827 8.22896 15.4444 7.20386 15.4409C6.67932 15.4474 6.15876 15.3534 5.67306 15.1644C5.21033 15.0019 4.78735 14.7509 4.43018 14.4267C4.06772 14.1163 3.77909 13.7356 3.58368 13.31C3.36595 12.8941 3.25477 12.4349 3.25927 11.97C3.25745 11.5011 3.36843 11.0381 3.58368 10.6165C3.7883 10.2011 4.07582 9.82774 4.43018 9.51724C4.79217 9.19831 5.21378 8.94709 5.67306 8.77666C5.8525 8.70899 6.03295 8.65678 6.21239 8.60651M13.401 1.58073L8.10611 1.58073L13.691 4.41347L12.809 5.7873L7.20588 2.93522L1.60277 5.7873L0.720791 4.41347L6.30565 1.58073L1.0087 1.58073L1.0087 0L13.4031 0L13.401 1.58073ZM9.22025 11.9739C9.22527 11.4683 9.01059 10.9832 8.62719 10.6339C8.24643 10.2825 7.73778 10.0853 7.20791 10.0838C6.68142 10.0814 6.17568 10.2794 5.80282 10.6339C5.40834 10.977 5.1869 11.4648 5.19456 11.9739C5.18375 12.4783 5.40622 12.9617 5.80282 13.2955C6.16866 13.6617 6.67756 13.8666 7.20791 13.8611C7.7416 13.8627 8.25336 13.6588 8.62719 13.2955C9.01273 12.9553 9.22836 12.4748 9.22025 11.9739" transform="translate(44.264706 5.147059)" id="패스_134" fill="#474645" stroke="none" />
    <path d="M6.21384 11.7629L6.21384 7.55116L8.17866 7.55116L8.17866 11.7629L14.4118 11.7629L14.4118 13.3824L0 13.3824L0 11.7629L6.21384 11.7629ZM7.2074 2.81888L1.98206 8.93168L0.467381 7.86974L7.2074 0L13.9434 7.86974L12.4307 8.93168L7.2074 2.81888Z" transform="translate(59.705883 5.147059)" id="패스_135" fill="#474645" stroke="none" />
    <path d="M6.58648 8.11617L0 8.11617L0 0.319101L1.79899 0.319101L1.79899 2.42934L4.81993 2.42934L4.81993 0.319101L6.58452 0.319101L6.58648 8.11617ZM0.648818 14.4118L0.648818 9.49989L2.5353 9.49989L2.5353 12.7916L13.3824 12.7916L13.3824 14.4118L0.648818 14.4118ZM4.82189 3.99921L1.80096 3.99921L1.80096 6.54726L4.82189 6.54726L4.82189 3.99921ZM8.52802 0.016145L10.3083 0.016145L10.3083 9.3299L8.52802 9.3299L8.52802 4.84159L6.93547 4.84159L6.93547 3.23849L8.52802 3.23849L8.52802 0.016145ZM11.4271 0L13.2428 0L13.2428 9.41632L11.4271 9.41632L11.4271 0Z" transform="translate(76.17647 5.147059)" id="패스_136" fill="#474645" stroke="none" />
    <path d="M3.83047 1.64747L3.83047 0L5.79193 0L5.79193 1.64747L9.31837 1.64747L9.31837 3.29594L5.57558 3.29594L9.62241 12.7642L8.09746 13.4728L4.8112 5.64505L1.55926 13.5984L0 12.8708L4.04778 3.29195L0.152495 3.29195L0.152495 1.64348L3.83047 1.64747ZM11.5505 7.84567L8.70649 7.84567L8.70649 6.14438L11.5505 6.14438L11.5505 0.0179398L13.3824 0.0179398L13.3824 15.4412L11.5505 15.4412L11.5505 7.84567Z" transform="translate(91.617645 5.147059)" id="패스_137" fill="#474645" stroke="none" />
    <path d="M7.70113 13.4206L5.82438 13.4206L5.82438 2.68013L0 2.68013L0 0.960895L7.70113 0.960895L7.70113 13.4206ZM11.5017 0L13.3824 0L13.3824 15.4412L11.5017 15.4412L11.5017 0Z" transform="translate(107.05882 5.147059)" id="패스_138" fill="#474645" stroke="none" />
    <path d="M8.42436 3.84725C8.42951 4.34705 8.31919 4.84202 8.10094 5.2984C7.87303 5.74083 7.5608 6.14084 7.17952 6.47888C6.79845 6.82196 6.34935 7.0923 5.85739 7.27474C5.33508 7.47524 4.77554 7.57755 4.21082 7.57579C3.65222 7.57892 3.09871 7.47652 2.58358 7.27474C2.08254 7.10074 1.62672 6.82948 1.2462 6.47888C0.858644 6.14966 0.550456 5.74728 0.342061 5.2984C0.109785 4.84578 -0.00717259 4.34911 0.000340358 3.84725C-0.00161693 3.33983 0.115001 2.83812 0.342061 2.37711C0.554724 1.9305 0.862321 1.52889 1.2462 1.19663C1.63076 0.847511 2.08521 0.57256 2.58358 0.387479C3.10183 0.197295 3.654 0.100616 4.21082 0.102568C4.77379 0.101947 5.33203 0.198542 5.85739 0.387479C6.34646 0.581034 6.79429 0.855108 7.17952 1.19663C7.55718 1.53763 7.86891 1.93699 8.10094 2.37711C8.31421 2.84166 8.42424 3.34181 8.42436 3.84725M1.05398 8.2026L2.96802 8.2026L2.96802 9.58347L11.4632 9.58347L11.4632 8.2026L13.3783 8.2026L13.3783 14.4118L1.05906 14.4118L1.05398 8.2026ZM6.54591 3.84725C6.54595 3.27325 6.30538 2.72204 5.87569 2.31158C5.44315 1.89914 4.85037 1.66759 4.23218 1.66958C2.94665 1.67427 1.90608 2.64681 1.90218 3.84725C1.88145 4.42304 2.13197 4.97839 2.58765 5.36678C3.01224 5.7906 3.6109 6.02431 4.23218 6.00878C5.51147 6.00931 6.54931 5.04186 6.551 3.84725M11.4673 11.0698L2.97209 11.0698L2.97209 12.8922L11.4673 12.8922L11.4673 11.0698ZM8.93592 3.05235L11.4286 3.05235L11.4286 0L13.3824 0L13.3824 7.77808L11.4286 7.77808L11.4286 4.6564L8.93592 4.6564L8.93592 3.05235Z" transform="translate(123.52941 5.147059)" id="패스_139" fill="#474645" stroke="none" />
    <path d="M0 9.02512L14.4118 9.02512L14.4118 10.6416L8.17981 10.6416L8.17981 14.4118L6.21573 14.4118L6.21573 10.6416L0 10.6416L0 9.02512ZM3.08049 1.85335L11.3303 1.85335L11.3303 0L13.2568 0L13.2568 7.05523L1.15391 7.05523L1.15391 2.69301e-14L3.08049 2.69301e-14L3.08049 1.85335ZM11.3303 3.4357L3.08049 3.4357L3.08049 5.45581L11.3303 5.45581L11.3303 3.4357Z" transform="translate(138.97058 6.1764708)" id="패스_140" fill="#474645" stroke="none" />
  </g>
</svg>