<?xml version="1.0" encoding="utf-8"?>
<svg width="111px" height="25px" viewBox="0 0 111 25" version="1.1" xmlns:xlink="http://www.w3.org/1999/xlink" xmlns="http://www.w3.org/2000/svg">
  <defs>
    <filter id="filter_1">
      <feColorMatrix in="SourceGraphic" type="matrix" values="0 0 0 0 1 0 0 0 0 1 0 0 0 0 1 0 0 0 1 0" />
    </filter>
  </defs>
  <g id="Logo" filter="url(#filter_1)">
    <path d="M18.1869 19.5L18.1869 11.475L20.1081 11.475L20.1081 7.725L18.1869 7.725L18.1869 0.5L13.3712 0.5L13.3712 19.5L18.1869 19.5ZM0.512308 18.75C2.61277 18.75 4.46988 18.1667 6.08365 17C7.69742 15.8333 8.95258 14.1708 9.84912 12.0125C10.7457 9.85417 11.1939 7.33333 11.1939 4.45L11.1939 0.7L0.256154 0.7L0.256154 4.45L6.37823 4.45C6.37823 7.03333 6.03669 9.1125 5.35362 10.6875C4.67054 12.2625 3.84231 13.375 2.86892 14.025C1.89554 14.675 0.939231 15 0 15L0.512308 18.75ZM32.5828 18.75L33.6074 14.875C32.856 14.7917 32.19 14.3917 31.6094 13.675C31.0288 12.9583 30.5634 11.9333 30.2133 10.6C29.8633 9.26667 29.6712 7.66667 29.637 5.8L29.637 5.8L33.0951 5.8L33.0951 2L29.7651 2L29.7651 0L24.975 0L24.975 2L21.645 2L21.645 5.8L25.1031 5.8C25.0689 8.73333 24.7317 10.95 24.0913 12.45C23.4509 13.95 22.4647 14.7583 21.1327 14.875L21.1327 14.875L22.1573 18.75C23.0795 18.6833 24.0016 18.3583 24.9238 17.775C25.8459 17.1917 26.6656 16.3333 27.3828 15.2C28.083 16.3333 28.8942 17.1917 29.8163 17.775C30.7385 18.3583 31.6606 18.6833 32.5828 18.75L32.5828 18.75ZM39.5758 19.5L39.5758 0.5L34.7601 0.5L34.7601 19.5L39.5758 19.5Z" transform="translate(1.2807692 0.5)" id="가치" fill="#015AA8" stroke="none" />
    <path d="M0 0L111 0L111 25L0 25L0 0Z" id="Rectangle" fill="none" fill-rule="evenodd" stroke="none" />
    <path d="M11.1939 10.25L12.2185 6.5C11.1768 6.5 10.2974 6.12917 9.58015 5.3875C8.86292 4.64583 8.50431 3.54167 8.50431 2.075L8.50431 2.075L8.50431 0L3.71423 0L3.71423 2.075C3.71423 3.54167 3.35562 4.64583 2.63838 5.3875C1.92115 6.12917 1.04169 6.5 0 6.5L0 6.5L1.02462 10.25C1.98092 10.25 2.89881 10.0708 3.77827 9.7125C4.65773 9.35417 5.439 8.84167 6.12208 8.175C6.78808 8.84167 7.56081 9.35417 8.44027 9.7125C9.31973 10.0708 10.2376 10.25 11.1939 10.25L11.1939 10.25ZM18.4431 10.25L18.4431 6.875L20.3642 6.875L20.3642 3.375L18.4431 3.375L18.4431 0L13.6274 0L13.6274 10.25L18.4431 10.25ZM18.4431 19L18.4431 11.125L13.653 11.125L13.653 12.05L5.84031 12.05L5.84031 11.125L1.02462 11.125L1.02462 19L18.4431 19ZM13.653 16L5.84031 16L5.84031 15.05L13.653 15.05L13.653 16ZM39.8319 19L39.8319 0L35.0162 0L35.0162 19L39.8319 19ZM32.8389 18.25L33.8635 14.25C33.1122 14.1667 32.4333 13.7167 31.8271 12.9C31.2209 12.0833 30.747 10.9667 30.4055 9.55C30.0639 8.13333 29.8932 6.525 29.8932 4.725L29.8932 4.725L29.8932 0.25L25.3592 0.25L25.3592 4.725C25.3592 7.59167 25.0348 9.86667 24.3858 11.55C23.7369 13.2333 22.7379 14.1333 21.3888 14.25L21.3888 14.25L22.4135 18.25C23.3356 18.1833 24.2578 17.8542 25.1799 17.2625C26.1021 16.6708 26.9218 15.8083 27.639 14.675C28.3392 15.8083 29.1503 16.6708 30.0725 17.2625C30.9946 17.8542 31.9168 18.1833 32.8389 18.25L32.8389 18.25ZM60.8365 19L60.8365 10.975L62.7577 10.975L62.7577 7.225L60.8365 7.225L60.8365 0L56.0208 0L56.0208 19L60.8365 19ZM54.3046 18.25L54.3046 14.5L47.7215 14.5L47.7215 4L53.7923 4L53.7923 0.25L42.9058 0.25L42.9058 18.25L54.3046 18.25Z" transform="translate(44.57077 4.3333335)" id="삽시다" fill="#FF7300" stroke="none" />
  </g>
</svg>