<?xml version="1.0" encoding="utf-8"?>
<svg width="25px" height="25px" viewBox="0 0 25 25" version="1.1" xmlns:xlink="http://www.w3.org/1999/xlink" xmlns="http://www.w3.org/2000/svg">
  <g id="Close" transform="translate(0.5 0.5)">
    <path d="M7 6.3142L0.827123 0.141327Q0.759057 0.0732605 0.670124 0.0364234Q0.581191 -0.000413672 0.484931 -0.00041368Q0.388671 -0.000413688 0.299739 0.0364234Q0.210806 0.0732605 0.14274 0.141327L0.141326 0.142741Q0.0732599 0.210807 0.0364228 0.299739Q-0.000414339 0.388672 -0.000414335 0.484932Q-0.00041433 0.581192 0.0364228 0.670125Q0.0732598 0.759057 0.141326 0.827123L6.3142 7L0.141326 13.1729Q0.0732599 13.2409 0.0364228 13.3299Q-0.000414252 13.4188 -0.000414151 13.5151Q-0.000414051 13.6113 0.036423 13.7003Q0.0732601 13.7892 0.141326 13.8573L0.14274 13.8587Q0.210806 13.9267 0.299739 13.9636Q0.388672 14.0004 0.484931 14.0004Q0.581191 14.0004 0.670124 13.9636Q0.759057 13.9267 0.827123 13.8587L7 7.6858L13.1729 13.8587Q13.2066 13.8924 13.2462 13.9189Q13.2858 13.9453 13.3299 13.9636Q13.3739 13.9818 13.4207 13.9911Q13.4674 14.0004 13.5151 14.0004Q13.5627 14.0004 13.6095 13.9911Q13.6562 13.9818 13.7003 13.9636Q13.7443 13.9453 13.7839 13.9189Q13.8236 13.8924 13.8573 13.8587L13.8587 13.8573Q13.8924 13.8236 13.9189 13.7839Q13.9453 13.7443 13.9636 13.7003Q13.9818 13.6562 13.9911 13.6095Q14.0004 13.5627 14.0004 13.5151Q14.0004 13.4674 13.9911 13.4207Q13.9818 13.3739 13.9636 13.3299Q13.9453 13.2858 13.9189 13.2462Q13.8924 13.2066 13.8587 13.1729L7.6858 7L13.8587 0.827124Q13.8924 0.793421 13.9189 0.75379Q13.9453 0.71416 13.9636 0.670125Q13.9818 0.62609 13.9911 0.579343Q14.0004 0.532596 14.0004 0.484933Q14.0004 0.437269 13.9911 0.390522Q13.9818 0.343775 13.9636 0.29974Q13.9453 0.255705 13.9189 0.216075Q13.8924 0.176444 13.8587 0.142741L13.8573 0.141327Q13.8236 0.107624 13.7839 0.0811439Q13.7443 0.0546637 13.7003 0.0364239Q13.6562 0.018184 13.6095 0.00888546Q13.5627 -0.000413139 13.5151 -0.000413139Q13.4674 -0.000413139 13.4207 0.00888546Q13.3739 0.018184 13.3299 0.0364239Q13.2858 0.0546637 13.2462 0.0811439Q13.2066 0.107624 13.1729 0.141327L7 6.3142Z" transform="translate(5 5)" id="Combined-Shape" fill="#FFFFFF" fill-rule="evenodd" stroke="#FFFFFF" stroke-width="1" />
    <path d="M0 0L24 0L24 24L0 24L0 0Z" id="Rectangle" fill="none" fill-rule="evenodd" stroke="none" />
  </g>
</svg>