<?xml version="1.0" encoding="utf-8"?>
<svg width="10px" height="77px" viewBox="0 0 10 77" version="1.1" xmlns:xlink="http://www.w3.org/1999/xlink" xmlns="http://www.w3.org/2000/svg">
  <g id="Group">
    <g id="COUPON">
      <path d="M76.6766 0.129242L76.6766 9.58379L75.5687 9.58379L70.4167 2.16049L70.3243 2.16049L70.3243 9.58379L69.1795 9.58379L69.1795 0.129242L70.2874 0.129242L75.4579 7.571L75.5502 7.571L75.5502 0.129242L76.6766 0.129242ZM62.9257 4.85653C62.9257 5.85369 62.7456 6.71544 62.3855 7.44176C62.0254 8.16809 61.5315 8.72822 60.9036 9.12216C60.2758 9.5161 59.5587 9.71307 58.7524 9.71307C57.946 9.71307 57.2289 9.5161 56.6011 9.12216C55.9732 8.72822 55.4793 8.16809 55.1192 7.44176C54.7591 6.71544 54.5791 5.85369 54.5791 4.85653C54.5791 3.85938 54.7591 2.99763 55.1192 2.27131C55.4793 1.54498 55.9732 0.984849 56.6011 0.590909C57.2289 0.19697 57.946 7.15256e-07 58.7524 0C59.5587 7.15256e-07 60.2758 0.19697 60.9036 0.590909C61.5315 0.984849 62.0254 1.54498 62.3855 2.27131C62.7456 2.99763 62.9257 3.85938 62.9257 4.85653L62.9257 4.85653ZM61.8177 4.85653C61.8177 4.03787 61.6815 3.34694 61.4092 2.78373C61.1368 2.22052 60.769 1.79426 60.3058 1.50496C59.8426 1.21566 59.3248 1.07101 58.7524 1.07101C58.1799 1.07101 57.6621 1.21566 57.1989 1.50496C56.7357 1.79426 56.368 2.22052 56.0956 2.78373C55.8232 3.34694 55.687 4.03787 55.687 4.85653C55.687 5.67518 55.8232 6.36611 56.0956 6.92932C56.368 7.49253 56.7357 7.91879 57.1989 8.20809C57.6621 8.49739 58.1799 8.64204 58.7524 8.64204C59.3248 8.64204 59.8426 8.49739 60.3058 8.20809C60.769 7.91879 61.1368 7.49253 61.4092 6.92932C61.6815 6.36611 61.8177 5.67518 61.8177 4.85653L61.8177 4.85653ZM42.3608 9.58379L42.3608 0.129242L45.5554 0.129242C46.2971 0.129242 46.9042 0.26235 47.3766 0.528567C47.849 0.794785 48.1991 1.1541 48.4269 1.60651C48.6546 2.05893 48.7685 2.56366 48.7685 3.12072C48.7685 3.67777 48.6554 4.18405 48.4292 4.63954C48.203 5.09503 47.8544 5.45743 47.3835 5.72672C46.9126 5.99602 46.3094 6.13066 45.5739 6.13066L43.5057 6.13066L43.5057 9.58379L42.3608 9.58379ZM43.5057 5.11504L45.5369 5.11504C46.2971 5.11504 46.838 4.92422 47.1596 4.54259C47.4812 4.16097 47.642 3.68701 47.642 3.12072C47.642 2.55135 47.4805 2.0797 47.1573 1.70577C46.8341 1.33183 46.2879 1.14487 45.5185 1.14487L43.5057 1.14487L43.5057 5.11504ZM34.5928 0.129242L35.7377 0.129242L35.7377 6.38919C35.7377 7.03549 35.5861 7.61178 35.283 8.11806C34.9798 8.62433 34.5528 9.02289 34.0019 9.31372C33.451 9.60456 32.8047 9.74998 32.063 9.74998C31.3213 9.74998 30.675 9.60456 30.1241 9.31372C29.5732 9.02289 29.1462 8.62433 28.843 8.11806C28.5399 7.61178 28.3883 7.03549 28.3883 6.38919L28.3883 0.129242L29.5332 0.129242L29.5332 6.29686C29.5332 6.98933 29.7578 7.55946 30.2072 8.00726C30.6565 8.45506 31.2751 8.67896 32.063 8.67896C32.854 8.67896 33.4733 8.45506 33.9211 8.00726C34.3689 7.55946 34.5928 6.98933 34.5928 6.29686L34.5928 0.129242ZM22.1345 4.85653C22.1345 5.85369 21.9544 6.71544 21.5943 7.44176C21.2343 8.16809 20.7403 8.72822 20.1125 9.12216C19.4846 9.5161 18.7675 9.71307 17.9612 9.71307C17.1548 9.71307 16.4377 9.5161 15.8099 9.12216C15.1821 8.72822 14.6881 8.16809 14.328 7.44176C13.9679 6.71544 13.7879 5.85369 13.7879 4.85653C13.7879 3.85938 13.9679 2.99763 14.328 2.27131C14.6881 1.54498 15.1821 0.984849 15.8099 0.590909C16.4377 0.19697 17.1548 7.15256e-07 17.9612 0C18.7675 7.15256e-07 19.4846 0.19697 20.1125 0.590909C20.7403 0.984849 21.2343 1.54498 21.5943 2.27131C21.9544 2.99763 22.1345 3.85938 22.1345 4.85653L22.1345 4.85653ZM21.0265 4.85653C21.0265 4.03787 20.8903 3.34694 20.618 2.78373C20.3456 2.22052 19.9778 1.79426 19.5146 1.50496C19.0514 1.21566 18.5336 1.07101 17.9612 1.07101C17.3887 1.07101 16.8709 1.21566 16.4077 1.50496C15.9445 1.79426 15.5768 2.22052 15.3044 2.78373C15.032 3.34694 14.8958 4.03787 14.8958 4.85653C14.8958 5.67518 15.032 6.36611 15.3044 6.92932C15.5768 7.49253 15.9445 7.91879 16.4077 8.20809C16.8709 8.49739 17.3887 8.64204 17.9612 8.64204C18.5336 8.64204 19.0514 8.49739 19.5146 8.20809C19.9778 7.91879 20.3456 7.49253 20.618 6.92932C20.8903 6.36611 21.0265 5.67518 21.0265 4.85653L21.0265 4.85653ZM7.97727 3.08381L6.83239 3.08381C6.74006 2.64678 6.56309 2.279 6.30149 1.98047C6.03989 1.68194 5.72443 1.45573 5.35511 1.30185C4.9858 1.14796 4.59186 1.07102 4.1733 1.07102C3.60085 1.07102 3.08304 1.21567 2.61985 1.50497C2.15666 1.79427 1.78888 2.22053 1.51651 2.78374C1.24414 3.34695 1.10795 4.03788 1.10795 4.85653C1.10795 5.67519 1.24414 6.36612 1.51651 6.92933C1.78888 7.49254 2.15666 7.9188 2.61985 8.2081C3.08304 8.4974 3.60085 8.64205 4.1733 8.64205C4.59186 8.64205 4.9858 8.5651 5.35511 8.41122C5.72443 8.25734 6.03989 8.03113 6.30149 7.7326C6.56309 7.43407 6.74006 7.06629 6.83239 6.62926L7.97727 6.62926C7.86032 7.27557 7.6218 7.82878 7.26172 8.28889C6.90163 8.74899 6.45537 9.10139 5.92294 9.34606C5.39051 9.59073 4.80729 9.71307 4.1733 9.71307C3.36695 9.71307 2.64986 9.5161 2.02202 9.12216C1.39418 8.72822 0.900213 8.16809 0.540128 7.44176C0.180043 6.71544 1.78814e-07 5.85369 2.38419e-07 4.85653C2.38419e-07 3.85938 0.180043 2.99763 0.540128 2.27131C0.900213 1.54498 1.39418 0.984849 2.02202 0.590909C2.64986 0.19697 3.36695 7.15256e-07 4.1733 0C4.80729 7.15256e-07 5.39051 0.122337 5.92294 0.36701C6.45537 0.611683 6.90163 0.964074 7.26172 1.42418C7.62181 1.88429 7.86032 2.4375 7.97727 3.08381L7.97727 3.08381Z" transform="matrix(-4.371139E-08 -1 1 -4.371139E-08 0 76.676636)" id="COUPON" fill="#FFFFFF" stroke="none" />
    </g>
  </g>
</svg>