<?xml version="1.0" encoding="utf-8"?>
<svg width="43px" height="43px" viewBox="0 0 43 43" version="1.1" xmlns:xlink="http://www.w3.org/1999/xlink" xmlns="http://www.w3.org/2000/svg">
  <defs>
    <filter id="filter_1">
      <feColorMatrix in="SourceGraphic" type="matrix" values="0 0 0 0 0.6 0 0 0 0 0.6 0 0 0 0 0.6 0 0 0 1 0" />
    </filter>
  </defs>
  <g id="Loading,-Waiting" transform="translate(1.25 1.25)" filter="url(#filter_1)">
    <path d="M0 0L40 0L40 40L0 40L0 0Z" id="Path" fill="none" fill-rule="evenodd" stroke="none" />
    <path d="M0.833333 0L0.833333 6" transform="translate(19.166666 5)" id="Path" fill="none" fill-rule="evenodd" stroke="#323232" stroke-width="2.5" stroke-linecap="round" stroke-linejoin="round" />
    <path d="M0.833333 0L0.833333 6" transform="translate(19.166666 29)" id="Path" fill="none" fill-rule="evenodd" stroke="#323232" stroke-width="2.5" stroke-linecap="round" stroke-linejoin="round" />
    <path d="M0 0L4.23333 4.23333" transform="translate(9.4 9.4)" id="Path" fill="none" fill-rule="evenodd" stroke="#323232" stroke-width="2.5" stroke-linecap="round" stroke-linejoin="round" />
    <path d="M0 0L4.23333 4.23333" transform="translate(26.366667 26.366667)" id="Path" fill="none" fill-rule="evenodd" stroke="#323232" stroke-width="2.5" stroke-linecap="round" stroke-linejoin="round" />
    <path d="M0 0.833333L6 0.833333" transform="translate(5 19.166666)" id="Path" fill="none" fill-rule="evenodd" stroke="#323232" stroke-width="2.5" stroke-linecap="round" stroke-linejoin="round" />
    <path d="M0 0.833333L6 0.833333" transform="translate(29 19.166666)" id="Path" fill="none" fill-rule="evenodd" stroke="#323232" stroke-width="2.5" stroke-linecap="round" stroke-linejoin="round" />
    <path d="M0 4.23333L4.23333 0" transform="translate(9.4 26.366667)" id="Path" fill="none" fill-rule="evenodd" stroke="#323232" stroke-width="2.5" stroke-linecap="round" stroke-linejoin="round" />
    <path d="M0 4.23333L4.23333 0" transform="translate(26.366667 9.4)" id="Path" fill="none" fill-rule="evenodd" stroke="#323232" stroke-width="2.5" stroke-linecap="round" stroke-linejoin="round" />
  </g>
</svg>