<?xml version="1.0" encoding="utf-8"?>
<svg width="21px" height="21px" viewBox="0 0 21 21" version="1.1" xmlns:xlink="http://www.w3.org/1999/xlink" xmlns="http://www.w3.org/2000/svg">
  <g id="Group-5" transform="translate(0.5 0.5)">
    <g id="coupon" transform="translate(2 5)">
      <path d="M15.3516 0L0.647649 0Q0.583861 0 0.521299 0.0124444Q0.458736 0.0248888 0.399804 0.0492993Q0.340872 0.0737099 0.287834 0.109148Q0.234797 0.144587 0.189692 0.189692Q0.144587 0.234797 0.109148 0.287834Q0.0737099 0.340872 0.0492993 0.399804Q0.0248888 0.458736 0.0124444 0.521299Q0 0.583861 0 0.647649L0 9.35235Q0 9.41614 0.0124444 9.4787Q0.0248888 9.54126 0.0492993 9.60019Q0.0737099 9.65913 0.109148 9.71216Q0.144587 9.7652 0.189692 9.81031Q0.234797 9.85541 0.287834 9.89085Q0.340872 9.92629 0.399804 9.9507Q0.458736 9.97511 0.521299 9.98755Q0.583861 10 0.647649 10L15.3516 10Q15.4153 10 15.4779 9.98755Q15.5405 9.97511 15.5994 9.9507Q15.6583 9.92629 15.7114 9.89085Q15.7644 9.85541 15.8095 9.81031Q15.8546 9.7652 15.8901 9.71216Q15.9255 9.65913 15.9499 9.60019Q15.9743 9.54126 15.9868 9.4787Q15.9992 9.41614 15.9992 9.35235L15.9992 8.49993C15.4473 8.4995 15 8.05195 15 7.49993C15 6.94791 15.4473 6.50036 15.9992 6.49993L15.9992 6C15.4473 5.99957 15 5.55202 15 5C15 4.44798 15.4473 4.00043 15.9992 4L15.9992 3.49993C15.4473 3.4995 15 3.05195 15 2.49993C15 1.94791 15.4473 1.50036 15.9992 1.49993L15.9992 0.647649Q15.9992 0.583861 15.9868 0.521299Q15.9743 0.458736 15.9499 0.399804Q15.9255 0.340872 15.8901 0.287834Q15.8546 0.234797 15.8095 0.189692Q15.7644 0.144587 15.7114 0.109148Q15.6583 0.0737099 15.5994 0.0492993Q15.5405 0.0248888 15.4779 0.0124444Q15.4153 0 15.3516 0Z" transform="translate(0 6.880043E-05)" id="Combined-Shape" fill="none" fill-rule="evenodd" stroke="#111111" stroke-width="1" stroke-linejoin="round" />
      <path d="M0.5 0L0.5 10" transform="translate(10.999994 0)" id="Line" fill="none" fill-rule="evenodd" stroke="#111111" stroke-width="1" stroke-linecap="round" stroke-linejoin="round" stroke-dasharray="1 2" />
    </g>
    <g id="Group">
      <path d="M0 0L20 0L20 20L0 20L0 0Z" id="Rectangle" fill="none" fill-rule="evenodd" stroke="none" />
    </g>
  </g>
</svg>