<?xml version="1.0" encoding="utf-8"?>
<svg width="63px" height="63px" viewBox="0 0 63 63" version="1.1" xmlns:xlink="http://www.w3.org/1999/xlink" xmlns="http://www.w3.org/2000/svg">
  <g id="Document,-Content.9" transform="translate(1.5 1.5)">
    <g id="Group" transform="translate(7.5 7.5)">
      <path d="M40 20L40 12.07C40 10.745 39.4725 9.4725 38.535 8.535L31.465 1.465C30.5275 0.5275 29.255 0 27.93 0L5 0C2.2375 0 0 2.2375 0 5L0 40C0 42.7625 2.2375 45 5 45L22.5 45" id="Path" fill="none" fill-rule="evenodd" stroke="#323232" stroke-width="3" stroke-linecap="round" stroke-linejoin="round" />
      <path d="M12.5 12.5L2.5 12.5C1.12 12.5 0 11.38 0 10L0 0" transform="translate(27.5 0)" id="Path" fill="none" fill-rule="evenodd" stroke="#323232" stroke-width="3" stroke-linecap="round" stroke-linejoin="round" />
      <path d="M12.8056 2.1975C16.0506 5.4425 15.7006 10.915 11.7606 13.6825C9.2531 15.4425 5.7506 15.4425 3.2431 13.6825C-0.699395 10.9175 -1.0469 5.4425 2.1981 2.1975C5.1281 -0.7325 9.8781 -0.7325 12.8056 2.1975" transform="translate(27.496895 27.5)" id="Path" fill="none" fill-rule="evenodd" stroke="#323232" stroke-width="3" stroke-linecap="round" stroke-linejoin="round" />
      <path d="M4.7 4.7L0 0" transform="translate(40.3 40.3)" id="Path" fill="none" fill-rule="evenodd" stroke="#323232" stroke-width="3" stroke-linecap="round" stroke-linejoin="round" />
    </g>
    <path d="M0 0L60 0L60 60L0 60L0 0Z" id="Path" fill="none" fill-rule="evenodd" stroke="none" />
  </g>
</svg>