<?xml version="1.0" encoding="utf-8"?>
<svg width="22px" height="22px" viewBox="0 0 22 22" version="1.1" xmlns:xlink="http://www.w3.org/1999/xlink" xmlns="http://www.w3.org/2000/svg">
  <defs>
    <filter id="filter_1">
      <feColorMatrix in="SourceGraphic" type="matrix" values="0 0 0 0 0 0 0 0 0 0 0 0 0 0 0 0 0 0 1 0" />
    </filter>
  </defs>
  <g id="User,Profile.12" transform="translate(0.75 0.75)" filter="url(#filter_1)">
    <path d="M0 0L20 0L20 20L0 20L0 0Z" id="Path" fill="none" fill-rule="evenodd" stroke="none" />
    <g id="User,-Profile,-Add">
      <path d="M0 0L20 0L20 20L0 20L0 0Z" id="a" fill="none" fill-rule="evenodd" stroke="none" />
      <path d="M5.6676 0.972406C6.96414 2.26895 6.96414 4.37106 5.6676 5.6676C4.37106 6.96414 2.26895 6.96414 0.972406 5.6676C-0.324135 4.37106 -0.324135 2.26895 0.972406 0.972406C2.26895 -0.324135 4.37106 -0.324135 5.6676 0.972406" transform="translate(6.6799855 2.5000021)" id="Path" fill="none" fill-rule="evenodd" stroke="#000000" stroke-width="1.5" stroke-linecap="round" stroke-linejoin="round" />
      <path d="M7.5 0C11.295 0 15 1.63917 15 4.16L15 4.99333C15 5.45333 14.6267 5.82667 14.1667 5.82667L0.833333 5.82667C0.373333 5.82667 0 5.45333 0 4.99333L0 4.16C0 1.63833 3.705 0 7.5 0" transform="translate(2.5 11.673333)" id="Path" fill="none" fill-rule="evenodd" stroke="#000000" stroke-width="1.5" stroke-linecap="round" stroke-linejoin="round" />
      <path d="M0 0L20 0L20 20L0 20L0 0Z" id="a" fill="none" fill-rule="evenodd" stroke="none" />
    </g>
  </g>
</svg>