<?xml version="1.0" encoding="utf-8"?>
<svg width="26px" height="26px" viewBox="0 0 26 26" version="1.1" xmlns:xlink="http://www.w3.org/1999/xlink" xmlns="http://www.w3.org/2000/svg">
  <defs>
    <filter id="filter_1">
      <feColorMatrix in="SourceGraphic" type="matrix" values="0 0 0 0 1 0 0 0 0 1 0 0 0 0 1 0 0 0 1 0" />
    </filter>
  </defs>
  <g id="bag-shopping" transform="translate(0.8000488 0.80000305)" filter="url(#filter_1)">
    <path d="M0 0L24 0L24 24L0 24L0 0Z" id="Path" fill="none" fill-rule="evenodd" stroke="none" />
    <g id="icon" transform="translate(3.2 2.2)">
      <path d="M15.4 16L2.2 16C0.9845 16 0 14.9771 0 13.7143L0 2.28571C0 1.02286 0.9845 0 2.2 0L15.4 0C16.6155 0 17.6 1.02286 17.6 2.28571L17.6 13.7143C17.6 14.9771 16.6155 16 15.4 16Z" transform="translate(0 4)" id="Path" fill="none" fill-rule="evenodd" stroke="#111111" stroke-width="1.6" stroke-linecap="round" stroke-linejoin="round" />
      <path d="M0 3C0 1.343 1.343 0 3 0C4.657 0 6 1.343 6 3" transform="translate(5.8 0)" id="Path" fill="none" fill-rule="evenodd" stroke="#111111" stroke-width="1.6" stroke-linecap="round" stroke-linejoin="round" />
    </g>
  </g>
</svg>