<?xml version="1.0" encoding="utf-8"?>
<svg width="26px" height="26px" viewBox="0 0 26 26" version="1.1" xmlns:xlink="http://www.w3.org/1999/xlink" xmlns="http://www.w3.org/2000/svg">
  <defs>
    <filter id="filter_1">
      <feColorMatrix in="SourceGraphic" type="matrix" values="0 0 0 0 1 0 0 0 0 1 0 0 0 0 1 0 0 0 1 0" />
    </filter>
  </defs>
  <g id="Calendar,-Schedule.2" transform="translate(0.8000488 0.80000305)" filter="url(#filter_1)">
    <path d="M0 0L24 0L24 24L0 24L0 0Z" id="Path" fill="none" fill-rule="evenodd" stroke="none" />
    <g id="Group" transform="translate(3 3)">
      <path d="M0.5 0L0.5 4" transform="translate(12.5 0)" id="Path" fill="none" fill-rule="evenodd" stroke="#111111" stroke-width="1.6" stroke-linecap="round" stroke-linejoin="round" />
      <path d="M0.5 0L0.5 4" transform="translate(4.5 0)" id="Path" fill="none" fill-rule="evenodd" stroke="#111111" stroke-width="1.6" stroke-linecap="round" stroke-linejoin="round" />
      <path d="M0 0.5L18 0.5" transform="translate(0 6.5)" id="Path" fill="none" fill-rule="evenodd" stroke="#111111" stroke-width="1.6" stroke-linecap="round" stroke-linejoin="round" />
      <path d="M16 0L2 0C0.895 0 0 0.895 0 2L0 15C0 16.105 0.895 17 2 17L16 17C17.105 17 18 16.105 18 15L18 2C18 0.895 17.105 0 16 0Z" transform="translate(0 2)" id="Path" fill="none" fill-rule="evenodd" stroke="#111111" stroke-width="1.6" stroke-linecap="round" stroke-linejoin="round" />
    </g>
  </g>
</svg>