<?xml version="1.0" encoding="utf-8"?>
<svg width="24px" height="24px" viewBox="0 0 24 24" version="1.1" xmlns:xlink="http://www.w3.org/1999/xlink" xmlns="http://www.w3.org/2000/svg">
  <defs>
    <filter id="filter_1">
      <feColorMatrix in="SourceGraphic" type="matrix" values="0 0 0 0 1 0 0 0 0 1 0 0 0 0 1 0 0 0 1 0" />
    </filter>
  </defs>
  <g id="User,Profile.12-Copy" filter="url(#filter_1)">
    <path d="M0 0L24 0L24 24L0 24L0 0Z" id="Path" fill="none" fill-rule="evenodd" stroke="none" />
    <path d="M0.999 0L19.001 0Q19.0994 0 19.1959 0.0191955Q19.2924 0.038391 19.3833 0.0760443Q19.4742 0.113698 19.556 0.168362Q19.6378 0.223026 19.7074 0.2926Q19.777 0.362175 19.8316 0.443985Q19.8863 0.525796 19.924 0.616699Q19.9616 0.707602 19.9808 0.804105Q20 0.900607 20 0.999L20 1.001Q20 1.09939 19.9808 1.1959Q19.9616 1.2924 19.924 1.3833Q19.8863 1.4742 19.8316 1.55601Q19.777 1.63783 19.7074 1.7074Q19.6378 1.77697 19.556 1.83164Q19.4742 1.8863 19.3833 1.92396Q19.2924 1.96161 19.1959 1.9808Q19.0994 2 19.001 2L0.999 2Q0.900607 2 0.804105 1.9808Q0.707602 1.96161 0.616699 1.92396Q0.525796 1.8863 0.443985 1.83164Q0.362175 1.77697 0.2926 1.7074Q0.223026 1.63783 0.168362 1.55601Q0.113698 1.4742 0.0760443 1.3833Q0.038391 1.2924 0.0191955 1.1959Q0 1.09939 0 1.001L0 0.999Q0 0.900607 0.0191955 0.804105Q0.038391 0.707602 0.0760443 0.616699Q0.113698 0.525796 0.168362 0.443985Q0.223026 0.362175 0.2926 0.2926Q0.362175 0.223026 0.443985 0.168362Q0.525796 0.113698 0.616699 0.0760443Q0.707602 0.038391 0.804105 0.0191955Q0.900607 0 0.999 0Z" transform="translate(2 4)" id="Rectangle-Copy-5" fill="#000000" fill-rule="evenodd" stroke="none" />
    <path d="M0.999 0L19.001 0Q19.0994 0 19.1959 0.0191955Q19.2924 0.038391 19.3833 0.0760443Q19.4742 0.113698 19.556 0.168362Q19.6378 0.223026 19.7074 0.2926Q19.777 0.362175 19.8316 0.443985Q19.8863 0.525796 19.924 0.616699Q19.9616 0.707602 19.9808 0.804105Q20 0.900607 20 0.999L20 1.001Q20 1.09939 19.9808 1.1959Q19.9616 1.2924 19.924 1.3833Q19.8863 1.4742 19.8316 1.55601Q19.777 1.63783 19.7074 1.7074Q19.6378 1.77697 19.556 1.83164Q19.4742 1.8863 19.3833 1.92396Q19.2924 1.96161 19.1959 1.9808Q19.0994 2 19.001 2L0.999 2Q0.900607 2 0.804105 1.9808Q0.707602 1.96161 0.616699 1.92396Q0.525796 1.8863 0.443985 1.83164Q0.362175 1.77697 0.2926 1.7074Q0.223026 1.63783 0.168362 1.55601Q0.113698 1.4742 0.0760443 1.3833Q0.038391 1.2924 0.0191955 1.1959Q0 1.09939 0 1.001L0 0.999Q0 0.900607 0.0191955 0.804105Q0.038391 0.707602 0.0760443 0.616699Q0.113698 0.525796 0.168362 0.443985Q0.223026 0.362175 0.2926 0.2926Q0.362175 0.223026 0.443985 0.168362Q0.525796 0.113698 0.616699 0.0760443Q0.707602 0.038391 0.804105 0.0191955Q0.900607 0 0.999 0Z" transform="translate(2 11)" id="Rectangle" fill="#000000" fill-rule="evenodd" stroke="none" />
    <path d="M0.999 0L19.001 0Q19.0994 0 19.1959 0.0191955Q19.2924 0.038391 19.3833 0.0760443Q19.4742 0.113698 19.556 0.168362Q19.6378 0.223026 19.7074 0.2926Q19.777 0.362175 19.8316 0.443985Q19.8863 0.525796 19.924 0.616699Q19.9616 0.707602 19.9808 0.804105Q20 0.900607 20 0.999L20 1.001Q20 1.09939 19.9808 1.1959Q19.9616 1.2924 19.924 1.3833Q19.8863 1.4742 19.8316 1.55601Q19.777 1.63783 19.7074 1.7074Q19.6378 1.77697 19.556 1.83164Q19.4742 1.8863 19.3833 1.92396Q19.2924 1.96161 19.1959 1.9808Q19.0994 2 19.001 2L0.999 2Q0.900607 2 0.804105 1.9808Q0.707602 1.96161 0.616699 1.92396Q0.525796 1.8863 0.443985 1.83164Q0.362175 1.77697 0.2926 1.7074Q0.223026 1.63783 0.168362 1.55601Q0.113698 1.4742 0.0760443 1.3833Q0.038391 1.2924 0.0191955 1.1959Q0 1.09939 0 1.001L0 0.999Q0 0.900607 0.0191955 0.804105Q0.038391 0.707602 0.0760443 0.616699Q0.113698 0.525796 0.168362 0.443985Q0.223026 0.362175 0.2926 0.2926Q0.362175 0.223026 0.443985 0.168362Q0.525796 0.113698 0.616699 0.0760443Q0.707602 0.038391 0.804105 0.0191955Q0.900607 0 0.999 0Z" transform="translate(2 18)" id="Rectangle-Copy-4" fill="#000000" fill-rule="evenodd" stroke="none" />
  </g>
</svg>