<?xml version="1.0" encoding="utf-8"?>
<svg width="50px" height="50px" viewBox="0 0 50 50" version="1.1" xmlns:xlink="http://www.w3.org/1999/xlink" xmlns="http://www.w3.org/2000/svg">
  <defs>
    <path d="M25 50C38.8071 50 50 38.8071 50 25C50 11.1929 38.8071 0 25 0C11.1929 0 0 11.1929 0 25C0 38.8071 11.1929 50 25 50Z" id="path_1" />
    <clipPath id="mask_1">
      <use xlink:href="#path_1" />
    </clipPath>
  </defs>
  <g id="Group-2">
    <path d="M25 50C38.8071 50 50 38.8071 50 25C50 11.1929 38.8071 0 25 0C11.1929 0 0 11.1929 0 25C0 38.8071 11.1929 50 25 50Z" id="Mask-Copy" fill="#3B5998" fill-rule="evenodd" stroke="none" />
    <g clip-path="url(#mask_1)">
      <g id="iconmonstr-facebook-1" transform="translate(19 13)">
        <path d="M3 8L0 8L0 12L3 12L3 24L8 24L8 12L11.642 12L12 8L8 8L8 6.333C8 5.378 8.192 5 9.115 5L12 5L12 0L8.192 0C4.596 0 3 1.583 3 4.615L3 8Z" id="Path" fill="#FFFFFF" stroke="none" />
      </g>
    </g>
  </g>
</svg>