<?xml version="1.0" encoding="utf-8"?>
<svg width="24px" height="40px" viewBox="0 0 24 40" version="1.1" xmlns:xlink="http://www.w3.org/1999/xlink" xmlns="http://www.w3.org/2000/svg">
  <defs>
    <path d="M4.999 0L19.001 0Q19.1237 0 19.2463 0.00602151Q19.3689 0.012043 19.491 0.0240715Q19.6131 0.0361001 19.7345 0.0541066Q19.8559 0.0721132 19.9763 0.0960544Q20.0966 0.119996 20.2157 0.149814Q20.3347 0.179632 20.4521 0.215255Q20.5696 0.250879 20.6851 0.292221Q20.8007 0.333564 20.914 0.380526Q21.0274 0.427489 21.1383 0.479957Q21.2493 0.532426 21.3575 0.590276Q21.4657 0.648125 21.571 0.711215Q21.6763 0.774305 21.7783 0.842483Q21.8803 0.910662 21.9789 0.983765Q22.0775 1.05687 22.1723 1.13472Q22.2672 1.21257 22.3581 1.29499Q22.4491 1.3774 22.5358 1.46417Q22.6226 1.55095 22.705 1.64188Q22.7874 1.73281 22.8653 1.82767Q22.9431 1.92253 23.0162 2.0211Q23.0893 2.11967 23.1575 2.2217Q23.2257 2.32374 23.2888 2.429Q23.3519 2.53426 23.4097 2.64249Q23.4676 2.75072 23.52 2.86165Q23.5725 2.97259 23.6195 3.08597Q23.6664 3.19934 23.7078 3.31489Q23.7491 3.43043 23.7847 3.54787Q23.8204 3.6653 23.8502 3.78434Q23.88 3.90338 23.9039 4.02374Q23.9279 4.1441 23.9459 4.26549Q23.9639 4.38688 23.9759 4.50901Q23.988 4.63114 23.994 4.75371Q24 4.87628 24 4.999L24 35.001Q24 35.1237 23.994 35.2463Q23.988 35.3689 23.9759 35.491Q23.9639 35.6131 23.9459 35.7345Q23.9279 35.8559 23.9039 35.9762Q23.88 36.0966 23.8502 36.2157Q23.8204 36.3347 23.7847 36.4521Q23.7491 36.5696 23.7078 36.6851Q23.6664 36.8007 23.6195 36.914Q23.5725 37.0274 23.52 37.1383Q23.4676 37.2493 23.4097 37.3575Q23.3519 37.4657 23.2888 37.571Q23.2257 37.6763 23.1575 37.7783Q23.0893 37.8803 23.0162 37.9789Q22.9431 38.0775 22.8653 38.1723Q22.7874 38.2672 22.705 38.3581Q22.6226 38.4491 22.5358 38.5358Q22.4491 38.6226 22.3581 38.705Q22.2672 38.7874 22.1723 38.8653Q22.0775 38.9431 21.9789 39.0162Q21.8803 39.0893 21.7783 39.1575Q21.6763 39.2257 21.571 39.2888Q21.4657 39.3519 21.3575 39.4097Q21.2493 39.4676 21.1383 39.52Q21.0274 39.5725 20.914 39.6195Q20.8007 39.6664 20.6851 39.7078Q20.5696 39.7491 20.4521 39.7847Q20.3347 39.8204 20.2157 39.8502Q20.0966 39.88 19.9763 39.9039Q19.8559 39.9279 19.7345 39.9459Q19.6131 39.9639 19.491 39.9759Q19.3689 39.988 19.2463 39.994Q19.1237 40 19.001 40L4.999 40Q4.87628 40 4.75371 39.994Q4.63114 39.988 4.50901 39.9759Q4.38688 39.9639 4.26549 39.9459Q4.1441 39.9279 4.02374 39.9039Q3.90338 39.88 3.78434 39.8502Q3.6653 39.8204 3.54787 39.7847Q3.43043 39.7491 3.31489 39.7078Q3.19934 39.6664 3.08597 39.6195Q2.97259 39.5725 2.86165 39.52Q2.75072 39.4676 2.64249 39.4097Q2.53426 39.3519 2.429 39.2888Q2.32374 39.2257 2.2217 39.1575Q2.11967 39.0893 2.0211 39.0162Q1.92253 38.9431 1.82767 38.8653Q1.73281 38.7874 1.64188 38.705Q1.55095 38.6226 1.46417 38.5358Q1.3774 38.4491 1.29499 38.3581Q1.21257 38.2672 1.13472 38.1723Q1.05687 38.0775 0.983765 37.9789Q0.910662 37.8803 0.842483 37.7783Q0.774305 37.6763 0.711215 37.571Q0.648125 37.4657 0.590276 37.3575Q0.532426 37.2493 0.479957 37.1383Q0.427489 37.0274 0.380526 36.914Q0.333564 36.8007 0.292221 36.6851Q0.250879 36.5696 0.215255 36.4521Q0.179632 36.3347 0.149814 36.2156Q0.119996 36.0966 0.0960544 35.9762Q0.0721132 35.8559 0.0541066 35.7345Q0.0361001 35.6131 0.0240715 35.491Q0.012043 35.3689 0.00602151 35.2463Q0 35.1237 0 35.001L0 4.999Q0 4.87628 0.00602151 4.75371Q0.012043 4.63114 0.0240715 4.50901Q0.0361001 4.38688 0.0541066 4.26549Q0.0721132 4.1441 0.0960544 4.02374Q0.119996 3.90338 0.149814 3.78434Q0.179632 3.6653 0.215255 3.54787Q0.250879 3.43043 0.292221 3.31489Q0.333564 3.19934 0.380526 3.08597Q0.427489 2.97259 0.479957 2.86165Q0.532426 2.75072 0.590276 2.64249Q0.648125 2.53426 0.711215 2.429Q0.774305 2.32374 0.842483 2.2217Q0.910662 2.11967 0.983765 2.0211Q1.05687 1.92253 1.13472 1.82767Q1.21257 1.73281 1.29499 1.64188Q1.3774 1.55095 1.46417 1.46417Q1.55095 1.3774 1.64188 1.29499Q1.73281 1.21257 1.82767 1.13472Q1.92253 1.05687 2.0211 0.983765Q2.11967 0.910662 2.2217 0.842483Q2.32374 0.774305 2.429 0.711215Q2.53426 0.648125 2.64249 0.590276Q2.75072 0.532426 2.86165 0.479957Q2.97259 0.427489 3.08597 0.380526Q3.19934 0.333564 3.31489 0.292221Q3.43043 0.250879 3.54787 0.215255Q3.6653 0.179632 3.78434 0.149814Q3.90338 0.119996 4.02374 0.0960544Q4.1441 0.0721132 4.26549 0.0541066Q4.38688 0.0361001 4.50901 0.0240715Q4.63114 0.012043 4.75371 0.00602151Q4.87628 0 4.999 0Z" id="path_1" />
    <clipPath id="clip_1">
      <use xlink:href="#path_1" />
    </clipPath>
  </defs>
  <g id="휴대폰인증-icon">
    <g id="Rectangle">
      <g clip-path="url(#clip_1)">
        <use xlink:href="#path_1" fill="none" stroke="#111111" stroke-width="4" />
      </g>
    </g>
    <path d="M0.749 0L3.251 0Q3.32477 0 3.39712 0.0143918Q3.46947 0.0287836 3.53763 0.0570142Q3.60578 0.0852448 3.66712 0.126229Q3.72846 0.167214 3.78062 0.219377Q3.83279 0.27154 3.87377 0.332878Q3.91475 0.394215 3.94299 0.46237Q3.97122 0.530525 3.98561 0.602877Q4 0.67523 4 0.749L4 0.751Q4 0.82477 3.98561 0.897123Q3.97122 0.969475 3.94299 1.03763Q3.91475 1.10578 3.87377 1.16712Q3.83279 1.22846 3.78062 1.28062Q3.72846 1.33279 3.66712 1.37377Q3.60578 1.41475 3.53763 1.44299Q3.46947 1.47122 3.39712 1.48561Q3.32477 1.5 3.251 1.5L0.749 1.5Q0.67523 1.5 0.602877 1.48561Q0.530525 1.47122 0.46237 1.44299Q0.394215 1.41475 0.332878 1.37377Q0.27154 1.33279 0.219377 1.28062Q0.167214 1.22846 0.126229 1.16712Q0.0852448 1.10578 0.0570142 1.03763Q0.0287836 0.969475 0.0143918 0.897123Q0 0.82477 0 0.751L0 0.749Q0 0.67523 0.0143918 0.602877Q0.0287836 0.530525 0.0570142 0.46237Q0.0852448 0.394215 0.126229 0.332878Q0.167214 0.27154 0.219377 0.219377Q0.27154 0.167214 0.332878 0.126229Q0.394215 0.0852448 0.46237 0.0570142Q0.530525 0.0287836 0.602877 0.0143918Q0.67523 0 0.749 0L0.749 0Z" transform="translate(10 34)" id="Rectangle" fill="#111111" fill-rule="evenodd" stroke="none" />
  </g>
</svg>