<?xml version="1.0" encoding="utf-8"?>
<svg width="40px" height="39px" viewBox="0 0 40 39" version="1.1" xmlns:xlink="http://www.w3.org/1999/xlink" xmlns="http://www.w3.org/2000/svg">
  <defs>
    <path d="M3.54825 0.0848447L23.781 5.13832Q23.9342 5.17658 24.0837 5.2274Q24.2333 5.27822 24.378 5.34124Q24.5228 5.40425 24.6619 5.47904Q24.801 5.55383 24.9334 5.63988Q25.0658 5.72592 25.1906 5.82263Q25.3155 5.91934 25.4319 6.02606Q25.5483 6.13277 25.6554 6.24875Q25.7626 6.36473 25.8598 6.48919Q25.957 6.61364 26.0435 6.74572Q26.1301 6.87779 26.2054 7.01658Q26.2807 7.15537 26.3443 7.29991Q26.4079 7.44446 26.4593 7.59377Q26.5107 7.74308 26.5496 7.89614Q26.5884 8.04919 26.6145 8.20494Q26.6405 8.36068 26.6536 8.51805Q26.6667 8.67542 26.6667 8.83333L26.6667 27.6236Q26.6667 27.7815 26.6536 27.9388Q26.6405 28.0962 26.6145 28.252Q26.5884 28.4077 26.5496 28.5608Q26.5107 28.7138 26.4593 28.8631Q26.4079 29.0124 26.3443 29.157Q26.2808 29.3015 26.2054 29.4403Q26.1301 29.5791 26.0435 29.7112Q25.957 29.8432 25.8598 29.9677Q25.7626 30.0922 25.6554 30.2081Q25.5483 30.3241 25.4319 30.4308Q25.3155 30.5375 25.1906 30.6343Q25.0658 30.731 24.9334 30.817Q24.801 30.9031 24.6619 30.9778Q24.5228 31.0526 24.378 31.1157Q24.2333 31.1787 24.0837 31.2295Q23.9342 31.2803 23.781 31.3186L4.73142 36.0765Q4.62657 36.1027 4.5204 36.1229Q4.41424 36.1431 4.3071 36.1573Q4.19996 36.1714 4.09219 36.1795Q3.98442 36.1875 3.87637 36.1894Q3.76832 36.1914 3.66033 36.1871Q3.55234 36.1829 3.44477 36.1726Q3.33719 36.1623 3.23037 36.1459Q3.12356 36.1295 3.01784 36.1071Q2.91213 36.0846 2.80785 36.0562Q2.70358 36.0278 2.60109 35.9936Q2.49859 35.9593 2.39821 35.9193Q2.29782 35.8793 2.19986 35.8336Q2.10191 35.788 2.0067 35.7368Q1.91149 35.6857 1.81933 35.6293Q1.72717 35.5728 1.63836 35.5112Q1.54956 35.4497 1.46438 35.3832Q1.37921 35.3166 1.29794 35.2454Q1.21668 35.1742 1.13959 35.0984Q1.06249 35.0227 0.989815 34.9427Q0.917139 34.8627 0.849116 34.7788Q0.781093 34.6948 0.717941 34.6071Q0.654789 34.5194 0.596712 34.4282Q0.538634 34.3371 0.485818 34.2428Q0.433002 34.1485 0.385618 34.0514Q0.338233 33.9543 0.296432 33.8546Q0.254632 33.755 0.21855 33.6531Q0.182467 33.5512 0.15222 33.4475Q0.121972 33.3437 0.0976564 33.2384Q0.0733407 33.1331 0.0550351 33.0266Q0.0367294 32.9201 0.0244929 32.8127Q0.0122563 32.7054 0.00612815 32.5975Q0 32.4896 0 32.3815L0 2.85586Q0 2.77482 0.00459571 2.6939Q0.00919142 2.61299 0.018368 2.53246Q0.0275447 2.45194 0.0412727 2.37207Q0.0550007 2.29219 0.0732359 2.21323Q0.0914711 2.13426 0.114155 2.05645Q0.136839 1.97865 0.163898 1.90225Q0.190957 1.82586 0.222305 1.75112Q0.253653 1.67639 0.289188 1.60355Q0.324723 1.53071 0.364332 1.46Q0.40394 1.38929 0.447494 1.32095Q0.491049 1.2526 0.538409 1.18683Q0.585768 1.12107 0.636781 1.05809Q0.687794 0.995114 0.742296 0.935132Q0.796798 0.87515 0.854614 0.818356Q0.91243 0.761561 0.973373 0.708136Q1.03432 0.654711 1.09819 0.604828Q1.16207 0.554945 1.22867 0.508764Q1.29527 0.462584 1.36438 0.420254Q1.43349 0.377924 1.50489 0.339581Q1.57629 0.301239 1.64975 0.267006Q1.72321 0.232774 1.7985 0.202763Q1.87378 0.172752 1.95064 0.147057Q2.02751 0.121363 2.10571 0.100069Q2.1839 0.078775 2.26318 0.0619493Q2.34246 0.0451237 2.42257 0.0328207Q2.50267 0.0205177 2.58335 0.0127769Q2.66402 0.00503618 2.74501 0.00188258Q2.82599 -0.00127102 2.90702 0.000172687Q2.98805 0.00161639 3.06887 0.00765275Q3.14969 0.0136891 3.23004 0.0242987Q3.31039 0.0349083 3.39 0.050057Q3.46962 0.0652056 3.54825 0.0848446L3.54825 0.0848447Z" id="path_1" />
    <path d="M17.1691 0.0659624L2.31833 3.72199Q2.19536 3.75227 2.07533 3.79264Q1.9553 3.83302 1.83903 3.88321Q1.72276 3.93341 1.61106 3.99308Q1.49936 4.05276 1.39299 4.1215Q1.28663 4.19023 1.18634 4.26756Q1.08604 4.34489 0.992515 4.43028Q0.898987 4.51566 0.812867 4.60851Q0.726747 4.70137 0.648631 4.80105Q0.570515 4.90073 0.500941 5.00654Q0.431366 5.11236 0.370815 5.22359Q0.310263 5.33482 0.259151 5.45069Q0.208039 5.56656 0.166719 5.68627Q0.1254 5.80598 0.0941587 5.92871Q0.0629172 6.05144 0.0419689 6.17634Q0.0210207 6.30123 0.0105104 6.42744Q0 6.55364 0 6.68029L0 20.1931Q0 20.3198 0.0105104 20.446Q0.0210207 20.5722 0.0419689 20.6971Q0.0629172 20.822 0.0941587 20.9447Q0.1254 21.0674 0.166719 21.1872Q0.208039 21.3069 0.259151 21.4227Q0.310263 21.5386 0.370815 21.6498Q0.431366 21.7611 0.500941 21.8669Q0.570515 21.9727 0.648631 22.0724Q0.726747 22.1721 0.812867 22.2649Q0.898987 22.3578 0.992515 22.4432Q1.08604 22.5285 1.18634 22.6059Q1.28663 22.6832 1.39299 22.7519Q1.49936 22.8207 1.61106 22.8803Q1.72276 22.94 1.83903 22.9902Q1.9553 23.0404 2.07533 23.0808Q2.19536 23.1212 2.31833 23.1514L16.2251 26.5751Q16.3089 26.5957 16.3937 26.6115Q16.4785 26.6274 16.5641 26.6384Q16.6497 26.6494 16.7358 26.6556Q16.8218 26.6618 16.9081 26.6631Q16.9944 26.6643 17.0806 26.6607Q17.1668 26.6571 17.2527 26.6487Q17.3386 26.6402 17.4238 26.6268Q17.5091 26.6135 17.5934 26.5954Q17.6778 26.5773 17.761 26.5544Q17.8442 26.5315 17.926 26.504Q18.0077 26.4764 18.0878 26.4443Q18.1679 26.4122 18.246 26.3756Q18.3242 26.3389 18.4001 26.298Q18.4761 26.257 18.5496 26.2118Q18.6231 26.1666 18.6939 26.1173Q18.7647 26.068 18.8326 26.0148Q18.9005 25.9615 18.9653 25.9045Q19.0301 25.8476 19.0916 25.787Q19.1531 25.7264 19.211 25.6625Q19.2689 25.5986 19.3232 25.5314Q19.3774 25.4643 19.4277 25.3942Q19.4781 25.3242 19.5244 25.2513Q19.5707 25.1785 19.6128 25.1032Q19.6549 25.0279 19.6927 24.9503Q19.7304 24.8727 19.7637 24.7931Q19.7971 24.7135 19.8258 24.6322Q19.8546 24.5508 19.8787 24.4679Q19.9028 24.3851 19.9222 24.301Q19.9415 24.2169 19.9561 24.1319Q19.9707 24.0468 19.9805 23.9611Q19.9902 23.8754 19.9951 23.7892Q20 23.7031 20 23.6168L20 2.28444Q20 2.21973 19.9963 2.15512Q19.9927 2.09052 19.9854 2.02622Q19.978 1.96193 19.9671 1.89815Q19.9562 1.83437 19.9416 1.77131Q19.9271 1.70826 19.909 1.64612Q19.8909 1.58399 19.8694 1.52298Q19.8478 1.46197 19.8228 1.40228Q19.7978 1.34259 19.7695 1.28441Q19.7412 1.22622 19.7096 1.16974Q19.678 1.11325 19.6433 1.05865Q19.6086 1.00404 19.5709 0.951483Q19.5331 0.898928 19.4924 0.848594Q19.4518 0.79826 19.4083 0.750308Q19.3649 0.702357 19.3188 0.656941Q19.2727 0.611526 19.2241 0.568792Q19.1755 0.526059 19.1246 0.486144Q19.0736 0.446229 19.0205 0.409261Q18.9674 0.372293 18.9123 0.338391Q18.8572 0.304488 18.8002 0.27376Q18.7433 0.243031 18.6847 0.215575Q18.6261 0.188119 18.566 0.164023Q18.506 0.139928 18.4446 0.11927Q18.3833 0.0986128 18.3209 0.0814592Q18.2585 0.0643057 18.1953 0.0507112Q18.132 0.0371167 18.0681 0.0271249Q18.0041 0.0171331 17.9397 0.0107759Q17.8753 0.00441875 17.8107 0.00171667Q17.746 -0.000985417 17.6813 -2.37692e-05Q17.6166 0.000937879 17.5521 0.00556018Q17.4875 0.0101825 17.4234 0.0184506Q17.3592 0.0267187 17.2956 0.0386062Q17.232 0.0504936 17.1691 0.0659623L17.1691 0.0659624Z" transform="translate(20 12.198211)" id="path_2" />
    <clipPath id="clip_1">
      <use xlink:href="#path_1" />
    </clipPath>
    <clipPath id="clip_2">
      <use xlink:href="#path_2" />
    </clipPath>
  </defs>
  <g id="아이핀인증-icon">
    <g id="Combined-Shape-Copy-2">
      <g clip-path="url(#clip_1)">
        <use xlink:href="#path_1" fill="none" stroke="#111111" stroke-width="4" stroke-linejoin="round" />
      </g>
    </g>
    <g id="Combined-Shape">
      <g clip-path="url(#clip_2)">
        <use xlink:href="#path_2" fill="none" stroke="#111111" stroke-width="4" stroke-linejoin="round" />
      </g>
    </g>
  </g>
</svg>